<?xml version="1.0" encoding="UTF-8" standalone="no"?>
<!-- Created with Inkscape (http://www.inkscape.org/) -->

<svg
   width="500"
   height="500"
   viewBox="0 0 132.29167 132.29167"
   version="1.1"
   id="svg8"
   sodipodi:docname="warning - flinger.svg"
   inkscape:version="1.3.2 (091e20e, 2023-11-25, custom)"
   xml:space="preserve"
   inkscape:export-filename="warning - flinger.png"
   inkscape:export-xdpi="192"
   inkscape:export-ydpi="192"
   xmlns:inkscape="http://www.inkscape.org/namespaces/inkscape"
   xmlns:sodipodi="http://sodipodi.sourceforge.net/DTD/sodipodi-0.dtd"
   xmlns="http://www.w3.org/2000/svg"
   xmlns:svg="http://www.w3.org/2000/svg"
   xmlns:rdf="http://www.w3.org/1999/02/22-rdf-syntax-ns#"
   xmlns:cc="http://creativecommons.org/ns#"
   xmlns:dc="http://purl.org/dc/elements/1.1/"><defs
     id="defs2"><marker
       style="overflow:visible"
       id="Triangle"
       refX="0"
       refY="0"
       orient="auto-start-reverse"
       inkscape:stockid="Triangle arrow"
       markerWidth="1"
       markerHeight="1"
       viewBox="0 0 1 1"
       inkscape:isstock="true"
       inkscape:collect="always"
       preserveAspectRatio="xMidYMid"><path
         transform="scale(0.5)"
         style="fill:context-stroke;fill-rule:evenodd;stroke:context-stroke;stroke-width:1pt"
         d="M 5.77,0 -2.88,5 V -5 Z"
         id="path135" /></marker><inkscape:path-effect
       effect="bend_path"
       id="path-effect15"
       is_visible="true"
       lpeversion="1"
       bendpath="m 49.911826,94.6134 c -0.01028,-2.334101 -0.159533,-2.456703 0.80539,-4.80446"
       prop_scale="0.92298509"
       scale_y_rel="false"
       vertical="true"
       hide_knot="false"
       bendpath-nodetypes="cc" /><inkscape:path-effect
       effect="bend_path"
       id="path-effect14"
       is_visible="true"
       lpeversion="1"
       bendpath="m 45.333023,93.384509 c 0.646805,0.05392 2.905647,0.591857 3.648173,0.24423"
       prop_scale="1.0444321"
       scale_y_rel="false"
       vertical="false"
       hide_knot="false"
       bendpath-nodetypes="cc" /><inkscape:path-effect
       effect="envelope"
       id="path-effect13"
       is_visible="true"
       lpeversion="1"
       yy="true"
       xx="true"
       bendpath1="m 47.649513,91.731034 2.101379,0.814102"
       bendpath2="m 49.306837,92.515532 -0.325641,3.203335"
       bendpath3="m 46.494969,95.718867 h 2.486227"
       bendpath4="m 46.494969,91.53861 v 4.180257"
       bendpath1-nodetypes="cc"
       bendpath2-nodetypes="cc" /><inkscape:path-effect
       effect="bend_path"
       id="path-effect12"
       is_visible="true"
       lpeversion="1"
       bendpath="m 45.636462,92.903449 1.487344,-0.0222 1.487344,-0.0222"
       prop_scale="0.84521048"
       scale_y_rel="false"
       vertical="false"
       hide_knot="false"
       bendpath-nodetypes="ccc" /><clipPath
       id="819d25e4f6"><path
         d="M 9.070312,193.32422 H 126 v 102 H 9.070312 Z m 0,0"
         clip-rule="nonzero"
         id="path50962" /></clipPath><clipPath
       id="6b9a7a6152"><path
         d="M 9.070312,193.32422 H 125.32031 V 295 H 9.070312 Z m 0,0"
         clip-rule="nonzero"
         id="path50968" /></clipPath><clipPath
       id="e3f1afcfeb"><path
         d="m 69,236.03516 h 8 V 256 h -8 z m 0,0"
         clip-rule="nonzero"
         id="path50971" /></clipPath><clipPath
       id="4a60cf4493"><path
         d="M 30.449219,236.03516 H 77 V 287 H 30.449219 Z m 0,0"
         clip-rule="nonzero"
         id="path50974" /></clipPath></defs><sodipodi:namedview
     id="base"
     pagecolor="#ffffff"
     bordercolor="#666666"
     borderopacity="1.0"
     inkscape:pageopacity="0.0"
     inkscape:pageshadow="2"
     inkscape:zoom="2.0000001"
     inkscape:cx="333.24999"
     inkscape:cy="262.24999"
     inkscape:document-units="mm"
     inkscape:current-layer="layer1"
     showgrid="false"
     inkscape:window-width="1920"
     inkscape:window-height="1017"
     inkscape:window-x="-8"
     inkscape:window-y="-8"
     inkscape:window-maximized="1"
     inkscape:showpageshadow="2"
     inkscape:pagecheckerboard="0"
     inkscape:deskcolor="#d1d1d1" /><metadata
     id="metadata5"><rdf:RDF><cc:Work
         rdf:about=""><dc:format>image/svg+xml</dc:format><dc:type
           rdf:resource="http://purl.org/dc/dcmitype/StillImage" /></cc:Work></rdf:RDF></metadata><g
     inkscape:groupmode="layer"
     id="layer1"
     inkscape:label="sign"
     style="display:inline"
     transform="translate(1.9148867,-1.5319094)"><path
       fill="#ffcd30"
       d="m 67.042312,13.07551 57.377718,99.40112 H 9.6645995 Z m 0,0"
       fill-opacity="1"
       fill-rule="nonzero"
       id="path50995"
       style="display:inline;opacity:1;stroke-width:1.03932" /><g
       clip-path="url(#819d25e4f6)"
       id="g50999"
       transform="matrix(1.0393189,0,0,1.0393189,-2.998039,-191.08164)"
       style="display:inline;opacity:1"><path
         stroke-linecap="butt"
         transform="matrix(0.194388,0,0,0.194388,9.073162,193.3235)"
         fill="none"
         stroke-linejoin="round"
         d="M 300.00531,15.999387 584.00949,508.00803 H 16.001143 Z m 0,0"
         stroke="#000000"
         stroke-width="32"
         stroke-opacity="1"
         stroke-miterlimit="4"
         id="path50997" /></g><path
       fill="#ffcd30"
       d="m 74.516479,48.631578 c 0,-0.491257 -0.04873,-0.974359 -0.14209,-1.45749 -0.09743,-0.479067 -0.239518,-0.949994 -0.426283,-1.400635 -0.186753,-0.454702 -0.418163,-0.88504 -0.690171,-1.295077 C 72.98592,44.072374 72.673319,43.6948 72.32823,43.345653 71.979086,43.000585 71.601522,42.692042 71.195536,42.415961 70.785492,42.144028 70.35515,41.916592 69.900446,41.72578 c -0.450642,-0.186791 -0.917522,-0.328845 -1.400644,-0.422212 -0.48312,-0.09746 -0.966242,-0.146117 -1.457483,-0.146117 -0.49124,0 -0.978421,0.04859 -1.457481,0.146117 -0.483122,0.09334 -0.950002,0.235393 -1.404703,0.422212 -0.454704,0.190911 -0.885047,0.418163 -1.291031,0.690181 -0.410044,0.276052 -0.787609,0.584624 -1.132695,0.929692 -0.349147,0.349147 -0.657695,0.726721 -0.929703,1.132723 -0.272013,0.410037 -0.50342,0.840375 -0.690174,1.295077 -0.190819,0.450641 -0.332906,0.921568 -0.426283,1.400635 -0.09743,0.483131 -0.146156,0.966233 -0.146156,1.45749 l 2.224792,28.89386 c 0,0.341034 0.03246,0.686117 0.101496,1.023088 0.06497,0.336985 0.166455,0.665816 0.296368,0.986563 0.133985,0.316656 0.29637,0.621122 0.487183,0.905343 0.190818,0.288127 0.41004,0.552118 0.653633,0.795709 0.243584,0.243646 0.507482,0.462828 0.795728,0.653654 0.288246,0.194733 0.588678,0.353181 0.909405,0.487166 0.316668,0.129992 0.645514,0.231556 0.98248,0.300445 0.341026,0.06478 0.682055,0.09746 1.02714,0.09746 0.345086,0 0.686111,-0.0324 1.023078,-0.09746 0.336968,-0.06891 0.665816,-0.170581 0.986544,-0.300445 0.316668,-0.134112 0.621155,-0.292263 0.909402,-0.487166 0.28418,-0.19091 0.55214,-0.410037 0.79573,-0.653654 0.243583,-0.243648 0.45876,-0.507468 0.653634,-0.795709 0.190819,-0.284307 0.353205,-0.588687 0.483122,-0.905343 0.133956,-0.320747 0.231416,-0.649578 0.300425,-0.986563 0.06497,-0.336971 0.101496,-0.682054 0.101496,-1.023088 m 2.423724,17.16908 c -0.0041,0.33698 -0.03249,0.66986 -0.08119,0.99873 -0.04467,0.32885 -0.113697,0.6577 -0.207052,0.97843 -0.08934,0.32072 -0.19892,0.63739 -0.328846,0.94187 -0.133956,0.30854 -0.284181,0.60492 -0.4547,0.89316 -0.170521,0.28813 -0.35727,0.5643 -0.564321,0.82415 -0.207052,0.26396 -0.42628,0.51153 -0.665813,0.747012 -0.239517,0.23157 -0.491238,0.45064 -0.759189,0.64956 -0.267948,0.20299 -0.544018,0.38571 -0.836328,0.54809 -0.292312,0.16646 -0.592737,0.31262 -0.901282,0.4344 -0.308549,0.12572 -0.625216,0.23157 -0.950003,0.31668 -0.320727,0.0851 -0.649573,0.14612 -0.982483,0.18678 -0.328847,0.0406 -0.661754,0.0609 -0.99872,0.0609 -0.332906,-0.003 -0.665812,-0.0294 -0.994663,-0.073 -0.332907,-0.0448 -0.657692,-0.11366 -0.982479,-0.20299 -0.320728,-0.0851 -0.637395,-0.19503 -0.941884,-0.32479 -0.308545,-0.12999 -0.608973,-0.28017 -0.897222,-0.44659 -0.288248,-0.16646 -0.564317,-0.35321 -0.828209,-0.56025 -0.263883,-0.20299 -0.5156,-0.42222 -0.751071,-0.66176 -0.235481,-0.235392 -0.4547,-0.487182 -0.653633,-0.751092 -0.202986,-0.26779 -0.389745,-0.54402 -0.556197,-0.8363 -0.166454,-0.28813 -0.312609,-0.58869 -0.438462,-0.89723 -0.129921,-0.30855 -0.235483,-0.62523 -0.320731,-0.94593 -0.08525,-0.32479 -0.150222,-0.6496 -0.194855,-0.9825 -0.04467,-0.32885 -0.06497,-0.66176 -0.06497,-0.99466 0,-0.33698 0.02033,-0.66986 0.06497,-0.9987 0.04467,-0.33291 0.10962,-0.65772 0.194855,-0.9825 0.08525,-0.32072 0.19082,-0.63739 0.320731,-0.94593 0.125857,-0.30854 0.272013,-0.609 0.438462,-0.89725 0.166455,-0.29225 0.353204,-0.56835 0.556197,-0.8363 0.198921,-0.26397 0.418164,-0.51563 0.653633,-0.75108 0.235483,-0.23951 0.487183,-0.45877 0.751071,-0.66175 0.263882,-0.20711 0.539958,-0.38974 0.828209,-0.56027 0.288246,-0.16646 0.588677,-0.31667 0.897222,-0.4466 0.304489,-0.13 0.621156,-0.23952 0.941884,-0.32477 0.324787,-0.0892 0.649572,-0.1582 0.982479,-0.20298 0.328851,-0.0447 0.661757,-0.069 0.994663,-0.069 0.336966,-0.003 0.669873,0.0148 0.99872,0.0568 0.33291,0.0406 0.661756,0.10541 0.982483,0.18679 0.324787,0.0851 0.641454,0.19091 0.950003,0.31667 0.308545,0.12161 0.608973,0.2678 0.901282,0.4344 0.292312,0.16234 0.56838,0.34509 0.836328,0.5481 0.267948,0.19887 0.51966,0.41814 0.759189,0.64955 0.239547,0.23541 0.458761,0.48315 0.665813,0.74702 0.207051,0.26396 0.393806,0.5359 0.564321,0.82414 0.170519,0.28813 0.320726,0.58462 0.4547,0.89316 0.129922,0.30449 0.239519,0.62117 0.328846,0.94188 0.09337,0.32074 0.162391,0.64959 0.207052,0.97844 0.0487,0.3329 0.07712,0.66175 0.08119,0.99871"
       fill-opacity="1"
       fill-rule="nonzero"
       id="path51001"
       style="display:inline;opacity:1;stroke-width:1.03932" /><g
       clip-path="url(#6b9a7a6152)"
       id="g51013"
       transform="matrix(1.0393189,0,0,1.0393189,-2.998039,-191.08164)"
       style="display:inline;opacity:1"><path
         fill="#000000"
         d="M 125.01953,290.25391 69.957031,194.875 c -0.5625,-0.96875 -1.59375,-1.55078 -2.699219,-1.55078 -1.105468,0 -2.132812,0.60156 -2.695312,1.55078 L 9.5,290.25391 c -0.5625,0.97265 -0.5625,2.15625 0,3.10546 0.5625,0.96875 1.589844,1.55079 2.695312,1.55079 H 122.32031 c 1.10547,0 2.13672,-0.60157 2.69922,-1.55079 0.5625,-0.96875 0.5625,-2.15234 0,-3.10546 z m 0,0"
         fill-opacity="1"
         fill-rule="nonzero"
         id="path51011" /></g><path
       fill="#ffcd30"
       d="m 15.303719,108.95674 51.620858,-89.02419 51.620853,89.02419 z m 0,0"
       fill-opacity="1"
       fill-rule="nonzero"
       id="path51015"
       style="display:inline;opacity:1;stroke-width:1.03932" /><path
       style="fill:#000000;fill-opacity:1;stroke:#000000;stroke-width:1.065;stroke-dasharray:none"
       d="M 54.924203,94.13226 43.023518,89.336459"
       id="path11" /><path
       style="fill:#000000;stroke-width:1.44709346;stroke-dasharray:none"
       d="m 50.650187,89.988261 c -0.01158,0.0216 -0.02317,0.0432 -0.03474,0.06482 -0.132407,-0.05687 -0.264803,-0.113755 -0.397188,-0.170645 -0.218366,-0.09417 -0.428821,-0.177404 -0.468002,-0.184933 -0.164929,-0.03311 -0.35433,0.183968 -0.327027,0.39167 0.01467,0.111599 0.06435,0.169095 0.23512,0.269921 0.08524,0.05029 0.199267,0.118121 0.23387,0.139303 0.02361,0.01444 0.04724,0.02886 0.07087,0.04325 -0.04287,-0.0019 -0.08576,-0.0037 -0.128662,-0.0053 -0.146736,-0.0057 -0.223805,-0.0102 -0.374051,-0.0223 -0.111614,-0.009 -0.18619,0.02269 -0.253215,0.11108 -0.09458,0.124732 -0.119032,0.287888 -0.0624,0.411149 0.02203,0.04802 0.146987,0.17383 0.424126,0.385449 0.253822,0.19382 0.377037,0.278175 0.392377,0.297735 0.01102,0.01405 -0.01737,0.02305 -0.08103,0.02657 -0.05858,0.0033 -0.120058,0.0075 -0.157322,0.01059 -0.151636,0.01236 -0.59589,0.04554 -0.597883,0.04517 -0.05171,-0.0097 -0.190373,0.07381 -0.245803,0.15233 -0.02237,0.03169 -0.04023,0.0703 -0.05316,0.112686 -0.03602,0.127454 -0.02269,0.279961 0.03835,0.36927 0.03092,0.04522 0.103038,0.09707 0.355512,0.221901 0.126057,0.06234 0.251437,0.121189 0.37436,0.176488 0.234623,0.10555 0.258105,0.113111 0.223918,0.126076 -0.03209,0.01219 -0.326369,0.09341 -0.41828,0.115105 -0.05497,0.01299 -0.123093,0.03069 -0.155563,0.04032 -0.06374,0.01888 -0.239298,0.0694 -0.294835,0.08473 -0.161194,0.04446 -0.248141,0.248783 -0.186482,0.435096 0.04282,0.129363 0.06903,0.152132 0.247579,0.219279 0.08803,0.03308 0.222336,0.08439 0.280165,0.107184 0.03753,0.01481 0.07507,0.02958 0.112606,0.04435 -0.08323,0.01066 -0.166456,0.02131 -0.249681,0.03194 -0.292364,0.03732 -0.331037,0.05878 -0.374061,0.199475 -0.03869,0.126539 -0.02159,0.214777 0.05985,0.31503 0.02104,0.02589 0.04201,0.05175 0.06291,0.0776 l 0.466077,-0.0016 c 0.256341,-9.02e-4 0.47771,0.0042 0.49192,0.0109 0.01422,0.0069 0.02587,0.03025 0.02585,0.052 -1.8e-5,0.02165 0.0072,0.03943 0.01622,0.03946 0.0089,3.5e-5 0.01638,-0.01871 0.0164,-0.04166 1.9e-5,-0.02293 0.0091,-0.04217 0.02036,-0.04271 0.01121,-5.29e-4 0.26135,-7.24e-4 0.555859,-6.07e-4 0.505994,7.51e-4 0.53522,-0.0016 0.530126,-0.0393 -0.0037,-0.02658 -0.02871,-0.04675 -0.07479,-0.06027 -0.03816,-0.01109 -0.06943,-0.02819 -0.06949,-0.03796 -5.4e-5,-0.0098 0.0068,-0.0178 0.01537,-0.01789 0.02222,-2.43e-4 0.0896,-0.09094 0.112693,-0.151661 0.02807,-0.07381 0.01992,-0.248953 -0.01327,-0.310723 -0.01533,-0.02847 -0.04413,-0.06433 -0.06416,-0.08002 -0.03454,-0.02704 -0.217722,-0.100732 -0.448869,-0.181401 -0.05542,-0.01934 -0.14984,-0.05368 -0.214301,-0.07807 -0.06129,-0.02317 -0.163799,-0.06046 -0.218163,-0.07937 -0.05654,-0.01966 -0.10287,-0.04206 -0.102993,-0.04963 -1.22e-4,-0.0075 0.07846,-0.03639 0.174651,-0.0636 0.251639,-0.07119 0.582984,-0.162981 0.69285,-0.194845 0.110219,-0.03198 0.166822,-0.08772 0.193108,-0.185441 0.02532,-0.09413 0.0087,-0.190126 -0.04527,-0.265054 -0.0535,-0.07435 -0.05199,-0.0584 -0.466406,-0.245072 -0.269142,-0.121239 -0.531517,-0.267476 -0.51441,-0.266839 0.0088,4.14e-4 0.08055,-0.01144 0.1588,-0.02482 0.09486,-0.01624 0.155531,-0.0254 0.263419,-0.03748 0.04874,-0.0053 0.121593,-0.01262 0.21265,-0.02015 0.108059,-0.0089 0.212442,-0.01676 0.224672,-0.01881 0.01425,-0.0023 0.04494,-0.0055 0.06972,-0.0071 0.06254,-0.0038 0.152518,-0.06257 0.193597,-0.124252 0.06441,-0.09673 0.03642,-0.254916 -0.06142,-0.329124 -0.01707,-0.01296 -0.09968,-0.06983 -0.165732,-0.115265 -0.07711,-0.05305 -0.163614,-0.116107 -0.223705,-0.162345 -0.03788,-0.02913 -0.149282,-0.114035 -0.17958,-0.136643 -0.201247,-0.150201 -0.230363,-0.184638 -0.197465,-0.185565 0.02047,-6.12e-4 0.124554,0.0029 0.237467,0.0092 0.774404,0.04338 0.734035,0.0573 0.812169,0.01439 0.07421,-0.04075 0.135172,-0.126944 0.149256,-0.2121 0.0046,-0.02759 -0.0043,-0.09321 -0.01953,-0.145264 -0.0263,-0.08998 -0.03453,-0.0996 -0.154435,-0.174693 -0.0423,-0.0265 -0.08457,-0.05306 -0.126816,-0.07967 0.03365,0.0041 0.06729,0.0081 0.100924,0.01224 0.206466,0.02526 0.280983,0.02292 0.329939,-0.01229 0.10394,-0.07476 0.09862,-0.07844 -0.457762,-0.306762 L 50.636056,90.0727 c 0.0081,-0.0249 0.01631,-0.04979 0.02447,-0.07468 0.0082,-0.02488 0.01634,-0.04976 0.0245,-0.07463 -0.01161,0.02161 -0.02323,0.04324 -0.03484,0.06487 z m -0.277815,0.04311 c 0.07429,0.03083 0.14859,0.06165 0.222886,0.09248 -0.0159,0.03887 -0.03177,0.07778 -0.04756,0.11672 -0.05745,0.141662 -0.05778,0.14125 -0.32544,0.08789 -0.101102,-0.02014 -0.215777,-0.04134 -0.263228,-0.04885 -0.04387,-0.0069 -0.137497,-0.0235 -0.200667,-0.03551 -0.0651,-0.01232 -0.136563,-0.02308 -0.159926,-0.02418 -0.05029,-0.0023 -0.107433,-0.08013 -0.115629,-0.158099 -0.0075,-0.07101 0.04844,-0.209135 0.102672,-0.254091 0.08009,-0.06637 0.145151,-0.05868 0.36276,0.03987 0.11114,0.05005 0.301263,0.132605 0.424167,0.183668 -1.3e-5,3.1e-5 -2.6e-5,6.2e-5 -3.9e-5,9.4e-5 z m 1.131016,0.486979 c 0.02005,0.0086 0.0401,0.01722 0.06015,0.02583 -0.01837,0.0018 -0.03674,0.0036 -0.05512,0.0054 -0.03025,0.003 -0.107127,-0.0035 -0.170643,-0.01438 -0.26564,-0.04541 -0.297675,-0.05098 -0.418728,-0.07764 -0.215297,-0.04742 -0.349504,-0.07256 -0.380988,-0.07262 -0.02707,-7.6e-5 -0.02512,-0.01505 0.02162,-0.130411 0.01759,-0.04341 0.03527,-0.08679 0.053,-0.13013 0.138348,0.06147 0.276722,0.122916 0.415121,0.184325 0.228944,0.101506 0.441802,0.195449 0.475491,0.209788 3.3e-5,-7e-5 6.7e-5,-1.41e-4 1e-4,-2.11e-4 z m -0.380659,0.130979 c 0.0098,0.01417 -0.02108,0.01743 -0.08281,0.0089 -0.157887,-0.02171 -0.247253,-0.03217 -0.368292,-0.04335 -0.06475,-0.006 -0.146996,-0.01591 -0.180266,-0.02199 -0.05964,-0.01086 -0.06099,-0.01278 -0.03824,-0.07099 0.01287,-0.03294 0.0314,-0.0622 0.04115,-0.0651 0.01614,-0.0048 0.10698,0.0086 0.325652,0.05013 0.08876,0.01686 0.277564,0.106031 0.302816,0.142379 -3e-6,1.1e-5 -6e-6,2.2e-5 -9e-6,3.3e-5 z m 0.257137,0.169323 c 0.06547,0.08818 0.04127,0.220951 -0.05251,0.305108 -0.03921,0.03519 -0.07178,0.04473 -0.142157,0.04204 -0.09597,-0.0036 -0.37768,-0.02599 -0.545837,-0.04222 -0.151144,-0.01462 -0.334527,-0.02213 -0.375697,-0.01663 -0.02036,0.0028 -0.01273,-0.03896 0.05376,-0.224221 0.02714,-0.07563 0.05514,-0.151045 0.08377,-0.226279 0.02066,0.0032 0.04132,0.0064 0.06198,0.0097 0.06579,0.01032 0.351694,0.03794 0.418645,0.04049 0.02875,0.001 0.08494,0.0083 0.125561,0.0161 0.04023,0.0077 0.112567,0.01644 0.159565,0.0193 0.107857,0.0065 0.180601,0.03313 0.212901,0.07669 7e-6,-1.6e-5 1.4e-5,-3.2e-5 2.1e-5,-4.8e-5 z m -0.94422,-0.297024 c -0.02279,0.05837 -0.03273,0.06715 -0.07258,0.06276 -0.02578,-0.0028 -0.07402,-0.0062 -0.108717,-0.0074 -0.07968,-0.0029 -0.190132,-0.04454 -0.262809,-0.10035 -0.03105,-0.02376 -0.0877,-0.06197 -0.124902,-0.08407 -0.08104,-0.04818 -0.06748,-0.0728 0.02917,-0.05312 0.256435,0.05236 0.443564,0.08698 0.453436,0.08114 0.0064,-0.0039 0.03438,0.0022 0.06231,0.01321 0.0478,0.01887 0.04911,0.02385 0.02414,0.08783 -1.5e-5,9e-6 -2.9e-5,1.8e-5 -4.3e-5,2.8e-5 z m -0.144261,0.348965 c -0.04054,0.106405 -0.07982,0.206188 -0.08782,0.217826 -0.0085,0.01226 -0.03405,0.01627 -0.05675,0.0088 -0.02277,-0.0075 -0.06927,-0.0133 -0.103631,-0.01273 -0.08373,0.0014 -0.375053,-0.002 -0.487305,-0.0054 -0.07613,-0.0024 -0.166052,-0.0019 -0.20827,5.95e-4 -0.08704,0.0052 -0.144245,-0.04341 -0.165139,-0.146581 -0.01915,-0.09391 0.02959,-0.235794 0.100532,-0.294751 0.05418,-0.04505 0.08103,-0.05262 0.481154,-0.02809 0.365931,0.02244 0.491791,0.0357 0.526144,0.03889 0.08361,0.0078 0.07989,0.01496 0.0011,0.221506 -1.6e-5,-5e-6 -3.2e-5,-1.1e-5 -4.8e-5,-1.6e-5 z m -0.03537,0.41241 c 0.157592,0.127116 0.444694,0.337444 0.510674,0.382127 0.107091,0.07255 0.110188,0.06163 -0.242703,0.0575 -0.114789,-0.0013 -0.240557,0.0021 -0.298727,0.007 -0.102488,0.0087 -0.174612,-0.02234 -0.162353,-0.07431 0.0048,-0.02033 0.0021,-0.02117 -0.01341,-0.0027 -0.01413,0.01674 -0.02858,0.01539 -0.05276,-0.0056 -0.01646,-0.01425 -0.08634,-0.06719 -0.146457,-0.111894 -0.107565,-0.07996 -0.12721,-0.09493 -0.212038,-0.153004 -0.0083,-0.0056 -0.06801,-0.05412 -0.134142,-0.110494 -0.0398,-0.03393 -0.07942,-0.06822 -0.118875,-0.102822 0.01935,-0.0036 0.0387,-0.0072 0.05805,-0.01067 0.03243,-0.0058 0.106284,-0.0073 0.16631,-0.0032 0.126713,0.0087 0.199165,0.0093 0.339083,0.005 0.138479,-0.0043 0.167175,0.0099 0.307352,0.122999 -3e-6,6e-6 -5e-6,1.3e-5 -8e-6,2e-5 z m -0.137535,0.103663 c -0.01832,0.06312 -0.02638,0.110463 -0.01937,0.105213 0.0228,-0.01698 0.07727,-0.185286 0.06563,-0.202066 -0.0076,-0.01104 -0.025,0.02352 -0.04629,0.09685 9e-6,2e-6 1.8e-5,4e-6 2.7e-5,6e-6 z m 0.929576,0.493934 c 0.03188,0.05049 0.03509,0.07167 0.02238,0.135668 -0.02538,0.127826 -0.104465,0.159794 -0.377788,0.169906 -0.05715,0.0022 -0.123275,0.0061 -0.157885,0.0093 -0.174598,0.01598 -0.317693,0.03332 -0.409448,0.04434 -0.06226,0.0076 -0.10248,0.0123 -0.120904,0.01337 -0.01794,0.001 -0.03589,0.0021 -0.05383,0.0032 0.0016,-0.01306 0.0033,-0.02612 0.0051,-0.03917 0.0083,-0.06262 0.01792,-0.124966 0.02867,-0.187065 0.01299,-0.07504 0.02767,-0.14972 0.04387,-0.224061 0.01526,-4.2e-5 0.03051,-5.7e-5 0.04577,-4.7e-5 0.02815,4.5e-5 0.480064,-0.01075 0.532844,-0.01273 0.323487,-0.01214 0.392804,0.01051 0.441264,0.08724 0,0 -1.3e-5,5.2e-5 -1.3e-5,5.2e-5 z m -1.086725,0.166469 c -0.0105,0.05544 -0.02008,0.111126 -0.02867,0.167073 -0.0033,0.02137 -0.0064,0.04274 -0.0094,0.06413 -0.01955,0.0032 -0.03909,0.0065 -0.05864,0.0098 -0.0255,0.0044 -0.121648,0.01896 -0.183624,0.02823 -0.07124,0.01065 -0.152586,0.02518 -0.191892,0.03368 -0.04587,0.01 -0.08798,0.01932 -0.133797,0.02979 -0.03226,0.0073 -0.135614,0.02751 -0.209575,0.04135 -0.129697,0.02425 -0.147736,0.02398 -0.199569,-0.0142 -0.07738,-0.05716 -0.100236,-0.211861 -0.06087,-0.332252 0,0 0,0 0,0 0,0 1e-6,0 1e-6,0 0,0 0,0 0,0 0,0 0,0 0,0 0.01338,-0.03854 0.03254,-0.07254 0.05713,-0.09774 0.05656,-0.05794 0.276531,-0.113632 0.546442,-0.130608 0.258883,-0.01628 0.367137,-0.01924 0.419818,-0.02546 0.113088,-0.01336 0.09962,-0.02168 0.05268,0.226216 2e-6,0 4e-6,-10e-7 7e-6,-2e-6 z m -0.06715,0.337441 c 0.02096,0.01313 0.01888,0.0493 0.0044,0.228334 -0.0094,0.116875 -0.02019,0.224378 -0.02721,0.237572 -0.0097,0.01815 -0.0455,0.01018 -0.139452,-0.03306 -0.09317,-0.04297 -0.188705,-0.0874 -0.316878,-0.150045 -0.318718,-0.155781 -0.295486,-0.148182 -0.165936,-0.183196 0.06757,-0.01824 0.194174,-0.0451 0.29853,-0.06264 0.100067,-0.01685 0.194881,-0.03675 0.208867,-0.04506 0.03117,-0.01852 0.10278,-0.0138 0.137639,0.0081 4e-6,-1.8e-5 9e-6,-3.5e-5 1.3e-5,-5.2e-5 z m 0.178159,0.09774 c 0.06713,0.03507 0.13763,0.06948 0.165792,0.0819 0.100633,0.04445 0.257548,0.115086 0.338014,0.15277 0.03368,0.01577 0.06742,0.03136 0.101215,0.04678 -0.02404,0.0055 -0.04808,0.01114 -0.07211,0.01683 -0.03355,0.0079 -0.133735,0.02962 -0.195485,0.04257 -0.117286,0.02452 -0.206659,0.04531 -0.338658,0.07938 -0.04604,0.01189 -0.102976,0.01506 -0.126536,0.0066 -0.01428,-0.0051 -0.02856,-0.01018 -0.04283,-0.0153 0.0027,-0.0796 0.0065,-0.159123 0.01156,-0.238552 0.0083,-0.131057 0.02416,-0.237501 0.03015,-0.23691 0.0061,5.98e-4 0.06386,0.02984 0.128892,0.06388 -2e-6,1.6e-5 -5e-6,3.2e-5 -7e-6,4.9e-5 z m 0.804802,0.362874 c 0.0606,0.03776 0.08964,0.123843 0.08157,0.238174 -0.0013,0.01734 -0.01894,0.05386 -0.03918,0.08101 -0.03697,0.04956 -0.169207,0.09054 -0.582816,0.197926 -0.06927,0.01796 -0.149414,0.03986 -0.187299,0.05086 -0.189457,0.05521 -0.228004,0.06425 -0.255702,0.05338 -0.0163,-0.0064 -0.02954,-0.0025 -0.02941,0.0085 1.33e-4,0.01112 -0.05651,0.03643 -0.125854,0.05644 -0.07137,0.02059 -0.182594,0.05516 -0.256109,0.07959 -0.07094,0.02353 -0.170826,0.05415 -0.21945,0.06703 -0.17015,0.04517 -0.246103,0.06905 -0.260334,0.08104 -0.02455,0.02071 -0.12409,-0.04287 -0.162257,-0.104729 -0.04256,-0.06901 -0.04764,-0.160684 -0.01331,-0.251933 0.03087,-0.08206 0.0542,-0.09901 0.204198,-0.143954 0.06164,-0.01844 0.153677,-0.04621 0.179543,-0.05426 0.03333,-0.01035 0.114267,-0.0336 0.188099,-0.05371 0.06725,-0.01826 0.161417,-0.04417 0.188227,-0.05195 0.04594,-0.01333 0.127925,-0.03459 0.270215,-0.06775 0.01593,-0.0039 0.112331,-0.03029 0.205036,-0.05561 0.0979,-0.02672 0.209894,-0.05373 0.262635,-0.06416 0.179738,-0.03556 0.400047,-0.08294 0.408345,-0.09163 0.01733,-0.01813 0.0972,-0.0035 0.14386,0.02562 -2e-6,3.3e-5 -4e-6,6.7e-5 -6e-6,1e-4 z m -1.013859,0.351262 c -3.77e-4,0.06325 0.0071,0.114936 0.01613,0.114914 0.009,-2.3e-5 0.01613,-0.05172 0.0165,-0.114724 3.66e-4,-0.06302 -0.0061,-0.114717 -0.0151,-0.114857 -0.009,-1.39e-4 -0.01716,0.05143 -0.01753,0.114667 z m 0.0068,0.595792 c 0.0014,0.06271 0.003,0.125409 0.0045,0.188091 -0.02858,0.0013 -0.05717,0.0026 -0.08575,0.0039 -0.04717,0.0018 -0.103849,0.0085 -0.125967,0.01412 -0.02211,0.0059 -0.059,0.002 -0.08196,-0.0083 -0.02291,-0.01029 -0.08634,-0.034 -0.140701,-0.05263 -0.20743,-0.07101 -0.323834,-0.123469 -0.307476,-0.137201 0.0093,-0.0078 0.07383,-0.03046 0.143335,-0.05018 0.165769,-0.04702 0.235327,-0.06855 0.345656,-0.107191 0.0492,-0.01721 0.124153,-0.03285 0.166883,-0.03491 0.02585,-0.0013 0.0517,-0.0025 0.07755,-0.0038 0.0011,0.06268 0.0024,0.125357 0.0039,0.188024 z m 0.176315,-0.110194 c 0.0516,0.02119 0.157399,0.06103 0.24014,0.09038 0.239013,0.08473 0.357044,0.130318 0.35176,0.13646 -0.0061,0.0071 -0.397262,0.04016 -0.584347,0.04931 -0.04627,0.0023 -0.09255,0.0047 -0.138817,0.007 -0.0029,-0.05329 -0.0058,-0.106572 -0.0087,-0.159853 -0.0099,-0.185179 -0.0092,-0.184387 0.139916,-0.123098 1.1e-5,-5.8e-5 2.1e-5,-1.17e-4 3.2e-5,-1.75e-4 z m 0.886682,0.366455 c 0.03408,0.04194 0.04986,0.174736 0.02931,0.249608 -0.03327,0.121298 -0.08055,0.135318 -0.604218,0.166823 -0.138252,0.0083 -0.29591,0.01972 -0.346634,0.02519 -0.03125,0.0034 -0.0625,0.0067 -0.09375,0.01005 -8.29e-4,-0.07554 -0.0021,-0.151116 -0.0036,-0.226706 -0.0015,-0.07559 -0.0033,-0.151197 -0.0052,-0.226807 0.09113,-0.0065 0.182266,-0.01294 0.2734,-0.01943 0.150456,-0.01069 0.350353,-0.02873 0.444592,-0.04008 0.178085,-0.02142 0.250455,-0.0069 0.306118,0.06134 2e-6,5e-6 4e-6,9e-6 6e-6,1.4e-5 z m -1.051683,0.221487 c 0.0016,0.07562 0.0029,0.151199 0.0037,0.226718 -0.03124,0.0045 -0.06247,0.009 -0.09371,0.01354 -0.05235,0.0075 -0.269393,0.02135 -0.485889,0.03077 -0.13072,0.0057 -0.261435,0.01127 -0.392142,0.01674 -0.002,-0.0029 -0.04314,-0.06016 -0.04519,-0.06301 -0.07385,-0.102838 -0.06096,-0.260418 0.0304,-0.331777 0.03714,-0.02898 0.122407,-0.04175 0.450595,-0.06766 0.222678,-0.01755 0.407845,-0.03601 0.411472,-0.04085 0.0037,-0.0048 0.0311,-0.0094 0.06107,-0.01012 l 0.05447,-0.0013 c 0.0019,0.0757 0.0037,0.151366 0.0052,0.22699 z m 0.497902,0.283703 c -0.01118,0.0062 -0.02954,0.0063 -0.04079,3.19e-4 -0.01124,-0.006 -0.0021,-0.01075 0.02033,-0.01094 0.02242,-1.89e-4 0.03165,0.0046 0.02046,0.01062 z m 0.320978,0.01886 c 0.0038,0.0043 -0.04397,0.0073 -0.106033,0.0071 -0.07615,-7.54e-4 -0.102211,-0.0067 -0.08029,-0.01896 0.02923,-0.01633 0.16925,-0.0075 0.186323,0.01202 10e-7,-5.3e-5 10e-7,-1.07e-4 2e-6,-1.6e-4 z"
       id="path2222"
       transform="matrix(0.76981897,0,0,0.76981897,9.6474692,22.780908)"
       inkscape:original-d="m 47.744843,95.656896 -0.0081,-0.06186 -0.467185,0.0059 c -0.256951,0.0035 -0.501665,10e-4 -0.54381,-0.0056 -0.179367,-0.0269 -0.275242,-0.252913 -0.168205,-0.396532 0.05857,-0.07859 0.130355,-0.106628 0.341567,-0.13341 0.110749,-0.01402 0.241006,-0.03123 0.289461,-0.03819 l 0.0881,-0.01263 -0.132286,-0.03277 c -0.143592,-0.03555 -0.2381,-0.05666 -0.388125,-0.08662 -0.117156,-0.02337 -0.181015,-0.06608 -0.219186,-0.146521 -0.05364,-0.113047 -0.02654,-0.233463 0.06956,-0.309055 0.04099,-0.03228 0.202512,-0.08912 0.555696,-0.195656 0.320069,-0.09655 0.47057,-0.14493 0.491602,-0.158032 0.01509,-0.0094 -0.01279,-0.02223 -0.07954,-0.03655 -0.05652,-0.01214 -0.130606,-0.02829 -0.164629,-0.03595 -0.17905,-0.04008 -0.603606,-0.12406 -0.627158,-0.12406 -0.05585,0 -0.189268,-0.07753 -0.233739,-0.135835 -0.0746,-0.09781 -0.05368,-0.261846 0.04377,-0.343286 0.04029,-0.03366 0.116969,-0.06208 0.401778,-0.148859 0.11665,-0.03555 0.303556,-0.09248 0.415344,-0.126522 0.261129,-0.07952 0.281617,-0.08768 0.24744,-0.09857 -0.04579,-0.01462 -0.339915,-0.08139 -0.450693,-0.102344 -0.05832,-0.01104 -0.133882,-0.02645 -0.167905,-0.03426 -0.0842,-0.0193 -0.24291,-0.05392 -0.318393,-0.06943 -0.173644,-0.03565 -0.267227,-0.194999 -0.203753,-0.346915 0.04456,-0.106632 0.07109,-0.125309 0.26308,-0.185104 0.09874,-0.03073 0.233764,-0.07384 0.300049,-0.09573 l 0.120517,-0.03983 -0.270748,-0.02183 c -0.316658,-0.02551 -0.359837,-0.04277 -0.409856,-0.163438 -0.04528,-0.109262 -0.02888,-0.188823 0.05766,-0.279807 l 0.06714,-0.07057 h 0.505007 c 0.277753,0 0.517587,-0.005 0.532963,-0.01074 0.01538,-0.0059 0.02795,-0.02576 0.02795,-0.04421 0,-0.0184 0.0079,-0.03347 0.01768,-0.03347 0.0097,0 0.01767,0.01591 0.01767,0.03536 0,0.01944 0.0099,0.03571 0.02209,0.03615 0.01215,4.27e-4 0.283209,1.14e-4 0.602352,-4.98e-4 0.54832,-0.0015 0.579937,2.74e-4 0.574374,0.03013 -0.004,0.02104 -0.03109,0.03719 -0.08096,0.04828 -0.0413,0.0091 -0.07508,0.02307 -0.07508,0.03093 0,0.0079 0.0075,0.01427 0.01676,0.01427 0.02406,0 0.09776,0.0723 0.123623,0.121275 0.03098,0.05866 0.02642,0.203964 -0.008,0.256554 -0.01582,0.02412 -0.0461,0.05505 -0.0673,0.06871 -0.03597,0.02317 -0.233288,0.0904 -0.480395,0.163706 -0.05832,0.0173 -0.161719,0.04913 -0.229765,0.07078 -0.06804,0.02163 -0.173428,0.05373 -0.234183,0.07133 -0.06075,0.0176 -0.110463,0.03724 -0.110463,0.04366 0,0.0064 0.0855,0.02979 0.189997,0.05198 0.273366,0.05805 0.633023,0.137426 0.75223,0.166024 0.119345,0.02864 0.181598,0.07976 0.209181,0.171827 0.02665,0.08895 0.0062,0.181598 -0.05585,0.252198 -0.05309,0.06047 -0.06713,0.06602 -0.521146,0.206043 -0.301461,0.09298 -0.601765,0.192817 -0.58325,0.19391 0.0097,4.98e-4 0.08528,0.01735 0.167905,0.03724 0.159906,0.03853 0.175505,0.04197 0.503716,0.11063 0.11665,0.02441 0.22402,0.04824 0.238602,0.05289 0.01458,0.0045 0.04777,0.01313 0.07375,0.01885 0.06738,0.01472 0.152822,0.09222 0.184174,0.167083 0.04837,0.115512 -0.02403,0.270587 -0.147916,0.316822 -0.02648,0.0099 -0.119732,0.03948 -0.207219,0.06578 -0.08749,0.02631 -0.214742,0.06585 -0.282787,0.08789 -0.06805,0.02202 -0.17144,0.05392 -0.229765,0.07082 -0.254472,0.07376 -0.301315,0.09177 -0.265114,0.101958 0.01944,0.0055 0.130789,0.03098 0.247439,0.05673 0.810195,0.178699 0.77067,0.167784 0.833713,0.23023 0.05988,0.05931 0.0882,0.154249 0.06892,0.231055 -0.0063,0.02516 -0.04099,0.07708 -0.07706,0.1154 -0.06177,0.0656 -0.07485,0.07102 -0.224651,0.09291 l -0.159068,0.02327 0.106045,0.02288 c 0.216939,0.04674 0.290812,0.07347 0.325602,0.1177 0.07386,0.0939 0.06748,0.09494 -0.582702,0.09494 H 47.7654 l -0.0062,0.06628 -0.0062,0.06628 z m -0.259979,-0.122673 0.260695,-10e-4 V 95.42674 c 0,-0.128755 -0.0012,-0.129461 -0.290718,-0.170305 -0.107428,-0.01517 -0.23509,-0.03426 -0.283695,-0.04246 -0.0486,-0.0082 -0.145681,-0.02302 -0.215726,-0.03287 -0.07004,-0.0099 -0.146736,-0.02283 -0.170421,-0.02874 -0.05145,-0.01293 -0.139382,0.02865 -0.178355,0.08427 -0.03559,0.05081 -0.03543,0.171504 2.82e-4,0.222503 0.05287,0.07548 0.120419,0.09029 0.378641,0.08297 0.131231,-0.0035 0.355915,-0.0072 0.499297,-0.0078 z m 1.329985,-0.0193 0.07069,-10e-4 -0.05303,-0.02238 c -0.02916,-0.01228 -0.108697,-0.03218 -0.176743,-0.04416 -0.279317,-0.04923 -0.32376,-0.05645 -0.450692,-0.07339 -0.234844,-0.03133 -0.379244,-0.05367 -0.410925,-0.06354 -0.02735,-0.0085 -0.03093,0.004 -0.03093,0.109119 v 0.118759 l 0.490459,-0.01138 c 0.269753,-0.0062 0.522273,-0.01178 0.561156,-0.01223 z m -0.328715,-0.229215 c 0.01552,-0.0083 -0.01418,-0.02094 -0.07953,-0.03381 -0.171311,-0.03387 -0.256776,-0.05186 -0.387092,-0.08161 -0.06805,-0.01551 -0.153545,-0.03277 -0.189998,-0.03824 -0.06438,-0.0097 -0.06628,-0.0085 -0.06628,0.0443 0,0.02989 0.007,0.05866 0.01563,0.06397 0.0143,0.0088 0.110821,0.02631 0.346686,0.06277 0.09586,0.01482 0.320602,0.004 0.36058,-0.01735 z m 0.325458,-0.05508 c 0.100458,-0.05138 0.129381,-0.171222 0.06629,-0.274686 -0.02619,-0.04296 -0.05572,-0.06173 -0.128072,-0.08143 -0.113666,-0.03098 -0.378352,-0.09045 -0.571236,-0.128392 -0.156844,-0.03083 -0.353137,-0.07658 -0.390865,-0.09106 -0.01998,-0.0077 -0.02448,0.0281 -0.02448,0.19495 v 0.204342 l 0.06628,0.01104 c 0.07818,0.01303 0.361491,0.07585 0.437438,0.09704 0.02916,0.0082 0.08881,0.02019 0.132555,0.02675 0.04375,0.0066 0.119302,0.02252 0.167906,0.0354 0.110857,0.02944 0.194427,0.03148 0.244182,0.006 z m -1.066033,-0.05945 c 0,-0.05292 -0.0068,-0.06292 -0.0486,-0.0715 -0.02674,-0.0055 -0.07737,-0.01755 -0.112515,-0.02686 -0.08155,-0.02154 -0.209051,-0.02158 -0.30384,-6.5e-5 -0.04077,0.0092 -0.112037,0.02168 -0.158399,0.02765 -0.100273,0.01293 -0.09624,0.0354 0.0088,0.04903 0.278627,0.03605 0.480262,0.0668 0.487866,0.0744 0.0049,0.005 0.0354,0.0089 0.06781,0.0089 0.05548,0 0.05891,-0.0035 0.05891,-0.06152 z m -0.01327,-0.318947 c -0.0024,-0.09695 -0.0082,-0.186213 -0.0127,-0.198361 -0.0046,-0.01214 -0.02947,-0.02208 -0.05538,-0.02208 -0.02591,0 -0.07587,-0.0076 -0.111019,-0.01691 -0.113118,-0.02994 -0.360416,-0.08624 -0.505766,-0.115179 -0.07776,-0.01546 -0.175097,-0.03685 -0.216288,-0.04749 -0.0891,-0.02297 -0.163251,4.97e-4 -0.217329,0.06946 -0.04903,0.06233 -0.04636,0.176088 0.0056,0.23644 0.04223,0.04908 0.06223,0.05525 0.481096,0.147964 0.380299,0.08417 0.511961,0.11323 0.547901,0.120918 0.08585,0.01835 0.08865,0.01253 0.08394,-0.174761 z m 0.106113,-0.342446 c 0.204201,-0.06409 0.567357,-0.176054 0.64947,-0.20024 0.127899,-0.03769 0.138811,-0.03267 -0.238602,-0.109854 -0.116649,-0.02387 -0.257673,-0.05556 -0.313385,-0.07045 -0.106388,-0.02844 -0.190062,-0.01556 -0.1906,0.02929 -2.14e-4,0.0179 -0.0033,0.0178 -0.01486,-4.67e-4 -0.0106,-0.01671 -0.02622,-0.01835 -0.05717,-0.006 -0.02342,0.0093 -0.106211,0.0366 -0.183977,0.0606 -0.122,0.03764 -0.172677,0.05209 -0.265114,0.07563 -0.0097,0.0024 -0.08723,0.0275 -0.17224,0.05558 l -0.154566,0.05108 0.05736,0.02044 c 0.03154,0.01124 0.109055,0.02899 0.17224,0.03948 0.130458,0.02163 0.213966,0.03973 0.353485,0.07661 0.14115,0.03734 0.176856,0.03516 0.35796,-0.02168 z m -0.110521,-0.118511 c 0,-0.05566 0.0049,-0.09635 0.01078,-0.09043 0.01968,0.01969 0.02575,0.169047 0.0073,0.180429 -0.01155,0.0072 -0.01811,-0.02541 -0.01811,-0.09 z m 1.115849,-0.215998 c 0.04663,-0.04167 0.05624,-0.06351 0.05772,-0.131127 0.003,-0.136581 -0.07788,-0.190066 -0.369392,-0.244376 -0.05832,-0.0109 -0.133882,-0.02596 -0.167906,-0.03356 C 48.054431,93.69709 47.85101,93.653754 47.803,93.646653 l -0.05744,-0.0085 v 0.194342 0.194344 l 0.0486,0.0084 c 0.108358,0.01865 0.428461,0.08675 0.561156,0.119411 0.339699,0.08361 0.414432,0.08677 0.488414,0.02068 z m -1.119689,-0.360237 -0.005,-0.198142 -0.06186,-0.01407 c -0.03402,-0.0078 -0.121511,-0.02596 -0.194417,-0.04043 -0.07291,-0.01447 -0.16437,-0.03397 -0.203254,-0.04321 -0.03888,-0.0093 -0.10251,-0.02441 -0.141393,-0.03366 -0.03888,-0.0092 -0.13903,-0.03008 -0.222548,-0.0464 -0.13785,-0.02691 -0.157873,-0.0271 -0.217146,-0.0024 -0.116468,0.04868 -0.149505,0.224197 -0.05792,0.307727 0.04903,0.0447 0.276613,0.110893 0.559471,0.162667 0.272862,0.04994 0.387206,0.07231 0.441855,0.08644 0.112309,0.02904 0.107646,0.03719 0.102205,-0.178525 z m -0.02344,-0.29005 c 0.02408,-0.0092 0.02821,-0.03988 0.02598,-0.192155 -0.0014,-0.09964 -0.0085,-0.190628 -0.01566,-0.202194 -0.0097,-0.01567 -0.0488,-0.0097 -0.152674,0.02297 -0.07682,0.02422 -0.235114,0.07341 -0.351764,0.109312 -0.350345,0.107836 -0.336489,0.09818 -0.193393,0.134692 0.06748,0.0172 0.210183,0.04843 0.317113,0.06935 0.106928,0.02094 0.206346,0.04475 0.220928,0.05298 0.03156,0.0178 0.109409,0.02039 0.149462,0.005 z m 0.202693,-0.0686 c 0.07364,-0.02431 0.157746,-0.05108 0.186909,-0.05943 0.127651,-0.0366 0.273342,-0.08187 0.377685,-0.117373 l 0.112571,-0.03829 -0.07722,-0.01934 c -0.04247,-0.01064 -0.136873,-0.03207 -0.209779,-0.04769 -0.137345,-0.02934 -0.210729,-0.0459 -0.363931,-0.08191 -0.04949,-0.01164 -0.111127,-0.01586 -0.136975,-0.0093 l -0.047,0.01179 v 0.202916 c 0,0.111604 0.0054,0.20292 0.01193,0.20292 0.0066,0 0.07217,-0.01989 0.145812,-0.04425 z m 0.897972,-0.283023 c 0.06748,-0.03366 0.102488,-0.11609 0.09515,-0.224079 -0.0012,-0.01646 -0.01993,-0.05071 -0.0418,-0.0761 -0.03986,-0.04624 -0.183128,-0.08662 -0.631853,-0.177977 -0.07291,-0.01482 -0.16437,-0.03411 -0.203254,-0.04277 -0.205088,-0.04585 -0.248146,-0.05254 -0.277371,-0.04326 -0.01756,0.0056 -0.03193,0.0024 -0.03193,-0.0069 0,-0.0094 -0.06164,-0.03018 -0.136975,-0.04614 -0.07534,-0.01596 -0.200602,-0.04435 -0.278369,-0.06309 -0.07777,-0.0187 -0.185137,-0.04227 -0.238601,-0.05227 -0.184895,-0.03466 -0.26754,-0.05295 -0.283191,-0.06262 -0.02694,-0.01666 -0.133227,0.03784 -0.173372,0.08886 -0.04484,0.05701 -0.04907,0.130953 -0.01162,0.203364 0.03379,0.06534 0.05859,0.07815 0.221036,0.114179 0.07275,0.01611 0.160102,0.0359 0.194125,0.04391 0.03403,0.008 0.125487,0.02805 0.203253,0.04456 0.07776,0.01646 0.169231,0.03645 0.203254,0.04435 0.05305,0.01233 0.134605,0.02924 0.291624,0.06039 0.01944,0.004 0.11886,0.02705 0.220928,0.05154 0.102069,0.02447 0.229323,0.05289 0.282787,0.06313 0.19366,0.0371 0.430409,0.0905 0.43898,0.09907 0.01792,0.0179 0.105214,0.0079 0.157201,-0.01805 z m -1.091059,-0.335524 c 0,-0.05347 0.0079,-0.09721 0.01768,-0.09721 0.0097,0 0.01768,0.04376 0.01768,0.09721 0,0.05347 -0.0079,0.09721 -0.01768,0.09721 -0.0097,0 -0.01768,-0.04376 -0.01768,-0.09721 z m 0,-0.503716 v -0.159067 l -0.09279,-0.0015 c -0.05103,-4.98e-4 -0.112475,-0.005 -0.136535,-0.0093 -0.02406,-0.0045 -0.06383,-4.82e-4 -0.08837,0.0087 -0.02454,0.0092 -0.09235,0.03053 -0.15067,0.04739 -0.222317,0.0642 -0.346895,0.110128 -0.328888,0.121257 0.01028,0.0063 0.08053,0.02397 0.156116,0.03913 0.178754,0.03585 0.257458,0.05336 0.376025,0.0836 0.05347,0.01362 0.134987,0.02566 0.181161,0.02675 l 0.08395,0.002 z m 0.193239,0.09007 c 0.05412,-0.01849 0.169965,-0.05511 0.257453,-0.08136 0.256236,-0.07684 0.382519,-0.118179 0.376645,-0.12328 -0.0068,-0.0059 -0.430461,-0.02571 -0.632921,-0.02953 l -0.150231,-0.003 -0.0052,0.135332 c -0.006,0.156478 -0.006,0.156478 0.154216,0.10169 z m 0.949114,-0.328512 c 0.0358,-0.0358 0.04989,-0.146084 0.02643,-0.206909 -0.03796,-0.09843 -0.0888,-0.108426 -0.656237,-0.129092 -0.150673,-0.0055 -0.319683,-0.01338 -0.375577,-0.01756 l -0.101627,-0.0076 v 0.191871 0.191872 l 0.296043,0.01074 c 0.162823,0.0059 0.379554,0.01696 0.481622,0.02457 0.193218,0.01437 0.270721,4.97e-4 0.32934,-0.05788 z m -1.142353,-0.16578 v -0.192135 l -0.101627,-0.01064 c -0.0559,-0.0058 -0.292837,-0.01596 -0.526537,-0.02247 l -0.424909,-0.01183 -0.04787,0.0569 c -0.07867,0.09349 -0.05928,0.231035 0.04092,0.290224 0.04087,0.02412 0.133563,0.03337 0.488954,0.04864 0.241186,0.01034 0.441834,0.02213 0.445884,0.02615 0.0041,0.004 0.03387,0.0073 0.06628,0.0073 h 0.05891 z m 0.534645,-0.243755 c -0.01215,-0.005 -0.03203,-0.005 -0.04418,0 -0.01215,0.005 -0.0022,0.0089 0.02209,0.0089 0.0243,0 0.03424,-0.004 0.02209,-0.0089 z m 0.347592,-0.0173 c 0.0041,-0.0035 -0.04765,-0.0057 -0.114882,-0.0052 -0.08245,10e-4 -0.110739,0.006 -0.0869,0.01591 0.03171,0.01317 0.183379,0.005 0.201779,-0.01084 z"
       inkscape:path-effect="#path-effect15" /><path
       style="display:none;fill:none;fill-opacity:1;stroke:#000000;stroke-width:0.264999;stroke-dasharray:none"
       d="m 47.996938,96.145307 c 0.04017,-2.354283 -0.734666,-2.264992 0.976921,-4.410948"
       id="path12"
       sodipodi:nodetypes="cc" /><path
       style="fill:none;fill-opacity:1;stroke:#000000;stroke-width:0.0930374;stroke-dasharray:none"
       d="m 189.54881,345.34194 c -0.0547,-0.0106 -0.6272,-0.0268 -1.27225,-0.0361 l -1.17281,-0.0168 -0.0896,-0.0593 c -0.30734,-0.20351 -0.26056,-0.86045 0.0844,-1.18561 0.10973,-0.10342 0.20578,-0.12267 0.59514,-0.11926 0.35228,0.003 1.52131,0.0731 2.10437,0.12603 0.32907,0.0299 0.3915,0.0496 0.3915,0.12395 0,0.0942 -0.38554,1.09094 -0.44496,1.15036 -0.0447,0.0447 -0.0491,0.0451 -0.19586,0.0167 z"
       id="path15"
       transform="matrix(0.26458333,0,0,0.26458333,-1.9148867,1.5319094)" /><path
       style="fill:none;fill-opacity:1;stroke:#000000;stroke-width:0.0930374;stroke-dasharray:none"
       d="m 189.31679,345.27748 c -0.15799,-0.009 -0.71484,-0.023 -1.23743,-0.0316 -0.92521,-0.0151 -0.95208,-0.0168 -1.02237,-0.0635 -0.26477,-0.17604 -0.23895,-0.7403 0.048,-1.04978 0.0949,-0.10231 0.15509,-0.12873 0.3337,-0.1464 0.26396,-0.0261 2.33765,0.0974 2.62615,0.15648 0.0553,0.0113 0.0616,0.0205 0.0508,0.0743 -0.0195,0.0976 -0.20859,0.60741 -0.31742,0.85592 -0.0837,0.19102 -0.10703,0.22666 -0.14685,0.22386 -0.026,-0.002 -0.17661,-0.0105 -0.33461,-0.0193 z"
       id="path16"
       transform="matrix(0.26458333,0,0,0.26458333,-1.9148867,1.5319094)" /><path
       style="fill:none;fill-opacity:1;stroke:#000000;stroke-width:0.0930374;stroke-dasharray:none"
       d="m 189.33889,345.22081 c -0.0243,-0.004 -0.52624,-0.0178 -1.11541,-0.03 -1.17829,-0.0243 -1.1147,-0.0158 -1.22552,-0.16441 -0.039,-0.0523 -0.0456,-0.0933 -0.0456,-0.28641 0,-0.20875 0.005,-0.23587 0.0705,-0.36844 0.0388,-0.0787 0.10403,-0.17556 0.14499,-0.21522 0.12239,-0.11851 0.22463,-0.12897 0.94828,-0.097 0.86474,0.0382 1.90618,0.116 1.93464,0.14446 0.0119,0.0119 -0.16799,0.51191 -0.27914,0.77593 l -0.10233,0.24307 -0.14314,0.003 c -0.0787,0.002 -0.16302,-6e-4 -0.18733,-0.005 z"
       id="path17"
       transform="matrix(0.26458333,0,0,0.26458333,-1.9148867,1.5319094)" /><path
       style="fill:none;fill-opacity:1;stroke:#000000;stroke-width:0.0930374;stroke-dasharray:none"
       d="m 188.17879,345.13383 c -0.52867,-0.015 -0.98608,-0.0373 -1.01646,-0.0495 -0.11307,-0.0455 -0.14303,-0.10597 -0.15142,-0.30569 -0.009,-0.2161 0.0273,-0.34245 0.14521,-0.50499 0.10657,-0.14686 0.16892,-0.16678 0.52192,-0.16678 0.45584,0 2.25591,0.1126 2.28633,0.14302 0.0135,0.0135 -0.0543,0.21064 -0.19988,0.58066 l -0.13256,0.33698 -0.24596,-0.003 c -0.13527,-0.002 -0.67851,-0.0155 -1.20718,-0.0305 z"
       id="path18"
       transform="matrix(0.26458333,0,0,0.26458333,-1.9148867,1.5319094)" /><path
       style="fill:none;fill-opacity:1;stroke:#000000;stroke-width:0.0930374;stroke-dasharray:none"
       d="m 192.21151,345.52785 c -0.66671,-0.0598 -1.74441,-0.14031 -1.97769,-0.14783 l -0.29831,-0.01 0.006,-0.0681 c 0.009,-0.11575 0.40387,-1.23155 0.42708,-1.20834 0.015,0.015 0.56732,0.0764 1.11413,0.12388 0.26737,0.0232 0.54082,0.0524 0.60767,0.0648 0.0668,0.0124 0.26159,0.0371 0.43277,0.055 0.35255,0.0367 0.52404,0.0898 0.62583,0.19394 0.19927,0.20382 0.1753,0.562 -0.0557,0.83183 -0.13336,0.1558 -0.20636,0.18046 -0.52144,0.17615 -0.14937,-0.002 -0.31135,-0.007 -0.35996,-0.0116 z"
       id="path19"
       transform="matrix(0.26458333,0,0,0.26458333,-1.9148867,1.5319094)" /><path
       style="fill:none;fill-opacity:1;stroke:#000000;stroke-width:0.0930374;stroke-dasharray:none"
       d="m 191.86105,345.44248 c -0.33097,-0.0314 -1.50703,-0.11676 -1.73226,-0.12577 l -0.13817,-0.006 0.15329,-0.45299 c 0.0843,-0.24915 0.17632,-0.50781 0.20446,-0.57481 l 0.0512,-0.12181 0.12153,0.0157 c 0.0668,0.009 0.38504,0.0414 0.70711,0.0727 0.80128,0.078 1.58351,0.17983 1.70198,0.22163 0.19315,0.0681 0.28691,0.20704 0.28654,0.42448 -3.6e-4,0.21285 -0.15872,0.48157 -0.32466,0.5509 -0.0912,0.0381 -0.60485,0.0358 -1.031,-0.005 z"
       id="path20"
       transform="matrix(0.26458333,0,0,0.26458333,-1.9148867,1.5319094)" /><path
       style="fill:none;fill-opacity:1;stroke:#000000;stroke-width:0.0930374;stroke-dasharray:none"
       d="m 191.61489,345.3661 c -0.25522,-0.0215 -0.70224,-0.0554 -0.99337,-0.0755 -0.29113,-0.02 -0.5323,-0.0394 -0.53594,-0.043 -0.007,-0.007 0.21923,-0.68229 0.30214,-0.9024 0.0439,-0.1165 0.0521,-0.12545 0.10703,-0.11593 0.0327,0.006 0.39743,0.0454 0.81048,0.0882 0.41305,0.0428 0.93012,0.10289 1.14905,0.13347 0.44342,0.0619 0.56485,0.10479 0.64661,0.22818 0.12008,0.18124 0.0193,0.53911 -0.19193,0.68145 -0.0704,0.0474 -0.0938,0.0499 -0.45213,0.0473 -0.20784,-0.002 -0.58672,-0.0203 -0.84194,-0.0418 z"
       id="path21"
       transform="matrix(0.26458333,0,0,0.26458333,-1.9148867,1.5319094)" /><path
       style="fill:none;fill-opacity:1;stroke:#000000;stroke-width:0.0930374;stroke-dasharray:none"
       d="m 191.95739,345.33125 c -0.0304,-0.004 -0.43561,-0.0338 -0.9005,-0.0672 -0.46489,-0.0334 -0.85534,-0.067 -0.86766,-0.0746 -0.0138,-0.009 0.0352,-0.18309 0.12749,-0.45427 l 0.14989,-0.44042 0.088,0.005 c 0.1701,0.01 1.54988,0.16274 1.85576,0.20571 0.38803,0.0545 0.53073,0.0956 0.61094,0.1758 0.055,0.055 0.063,0.0795 0.063,0.19297 0,0.15281 -0.0754,0.32611 -0.1802,0.41431 -0.066,0.0556 -0.0678,0.0557 -0.47889,0.0524 -0.22694,-0.002 -0.43748,-0.006 -0.46787,-0.01 z"
       id="path22"
       transform="matrix(0.26458333,0,0,0.26458333,-1.9148867,1.5319094)" /><path
       style="fill:none;fill-opacity:1;stroke:#000000;stroke-width:0.0930374;stroke-dasharray:none"
       d="m 189.56059,347.17695 c -0.1137,-0.0285 -0.18856,-0.0996 -0.18856,-0.1792 0,-0.0691 -0.0243,-0.0798 -0.0663,-0.0293 -0.0151,0.0182 -0.0352,0.0331 -0.0447,0.0331 -0.009,0 -0.12507,-0.0827 -0.25694,-0.18379 -0.13187,-0.10109 -0.40881,-0.30631 -0.61542,-0.45605 -0.2066,-0.14974 -0.50944,-0.3874 -0.67298,-0.52813 l -0.29733,-0.25588 0.0764,-0.0169 c 0.042,-0.009 0.47411,-0.0113 0.96025,-0.004 0.67713,0.01 0.90749,0.02 0.98484,0.0443 0.0612,0.0192 0.20907,0.11438 0.37565,0.24182 0.5409,0.41379 1.38281,1.04354 1.56185,1.16826 0.10026,0.0698 0.1823,0.1361 0.1823,0.14724 0,0.0119 -0.32162,0.0203 -0.77893,0.0204 -0.4284,8e-5 -0.85847,0.005 -0.9557,0.0103 -0.0972,0.006 -0.21622,2.5e-4 -0.26443,-0.0118 z m -0.0575,-0.69282 c 0.0315,-0.038 0.14432,-0.36732 0.16523,-0.48242 0.0122,-0.0674 0.008,-0.0829 -0.0202,-0.0829 -0.0498,0 -0.12181,0.19553 -0.19718,0.53585 -0.0145,0.0657 0.0104,0.0797 0.0522,0.0294 z"
       id="path27"
       transform="matrix(0.26458333,0,0,0.26458333,-1.9148867,1.5319094)" /><path
       style="fill:none;fill-opacity:1;stroke:#000000;stroke-width:0.0930374;stroke-dasharray:none"
       d="m 189.52814,347.09548 c -0.0512,-0.026 -0.0844,-0.0638 -0.10186,-0.11597 -0.024,-0.0716 -0.0323,-0.0771 -0.11191,-0.0743 -0.0789,0.003 -0.13306,-0.0319 -0.66049,-0.42356 -0.31599,-0.23466 -0.69223,-0.52442 -0.83609,-0.64391 l -0.26156,-0.21725 0.53067,-0.006 c 0.73158,-0.008 1.2964,0.02 1.39096,0.0694 0.04,0.0209 0.44767,0.31867 0.90598,0.66175 0.45832,0.34309 0.87535,0.65426 0.92674,0.6915 l 0.0934,0.0677 -0.64587,0.0146 c -1.01875,0.023 -1.14236,0.0205 -1.23001,-0.0241 z m 0.0172,-0.56474 c 0.0387,-0.0466 0.18028,-0.48968 0.18028,-0.5642 0,-0.10144 -0.0715,-0.13291 -0.14191,-0.0625 -0.0836,0.0836 -0.22047,0.56559 -0.17947,0.63193 0.0204,0.033 0.11217,0.0296 0.1411,-0.005 z"
       id="path28"
       transform="matrix(0.26458333,0,0,0.26458333,-1.9148867,1.5319094)" /><path
       style="fill:none;fill-opacity:1;stroke:#000000;stroke-width:0.0930374;stroke-dasharray:none"
       d="m 189.55945,347.04321 c -0.0245,-0.0119 -0.0643,-0.0585 -0.0884,-0.10347 -0.0367,-0.0684 -0.0582,-0.0837 -0.13217,-0.0936 -0.053,-0.007 -0.14408,-0.0498 -0.22754,-0.10651 -0.17902,-0.12172 -0.90406,-0.66803 -1.17467,-0.8851 l -0.20901,-0.16765 0.58466,-0.006 c 0.59413,-0.006 1.07081,0.0187 1.14197,0.06 0.11983,0.0696 0.12308,0.0784 0.0622,0.16809 -0.0756,0.11138 -0.14628,0.34167 -0.16066,0.52337 -0.0112,0.14198 -0.009,0.14949 0.042,0.16903 0.0928,0.0353 0.1709,0.005 0.21566,-0.0828 0.051,-0.10032 0.15627,-0.43181 0.15627,-0.49188 0,-0.0247 0.01,-0.0416 0.0215,-0.0375 0.0118,0.004 0.33589,0.24104 0.72009,0.52665 l 0.69856,0.51928 -0.11795,0.0144 c -0.19082,0.0233 -1.4828,0.0183 -1.53257,-0.006 z"
       id="path29"
       transform="matrix(0.26458333,0,0,0.26458333,-1.9148867,1.5319094)" /><path
       style="fill:none;fill-opacity:1;stroke:#000000;stroke-width:0.0930374;stroke-dasharray:none"
       d="m 189.51755,346.90302 c -0.0571,-0.0696 -0.10307,-0.10276 -0.15671,-0.11282 -0.11998,-0.0225 -0.30351,-0.14937 -1.08261,-0.7483 l -0.37565,-0.28878 0.56347,-0.006 c 0.58499,-0.006 0.93792,0.0174 0.98671,0.0662 0.0231,0.0231 0.0183,0.0489 -0.0256,0.13877 -0.1042,0.21315 -0.16672,0.61531 -0.10522,0.67681 0.0133,0.0133 0.0693,0.0292 0.12445,0.0355 0.14508,0.0163 0.20694,-0.053 0.30072,-0.33695 0.0401,-0.1214 0.0761,-0.22443 0.0799,-0.22895 0.006,-0.007 1.14522,0.82445 1.21221,0.88437 0.0116,0.0104 -0.30702,0.0188 -0.70997,0.0188 h -0.73096 z"
       id="path30"
       transform="matrix(0.26458333,0,0,0.26458333,-1.9148867,1.5319094)" /><path
       style="fill:none;fill-opacity:1;stroke:#000000;stroke-width:0.0930374;stroke-dasharray:none"
       d="m 186.19319,349.2078 c -0.18891,-0.0935 -0.29689,-0.32932 -0.29689,-0.64835 0,-0.34527 0.12048,-0.59007 0.3502,-0.71158 0.14428,-0.0763 0.44476,-0.16187 0.75503,-0.21499 0.26416,-0.0452 0.57617,-0.0731 1.2546,-0.11201 0.31599,-0.0181 0.64147,-0.0392 0.72329,-0.0469 0.18657,-0.0175 0.19292,-0.006 0.14441,0.26702 -0.0195,0.10986 -0.0679,0.38868 -0.10746,0.61959 -0.0396,0.23092 -0.0731,0.42195 -0.0746,0.42451 -0.001,0.003 -0.25078,0.0442 -0.55408,0.0925 -0.30329,0.0483 -0.7354,0.12763 -0.96024,0.17631 -0.49098,0.10629 -1.00215,0.20165 -1.08083,0.20163 -0.0314,-1e-5 -0.10051,-0.0215 -0.15347,-0.0477 z"
       id="path31"
       transform="matrix(0.26458333,0,0,0.26458333,-1.9148867,1.5319094)" /><path
       style="fill:none;fill-opacity:1;stroke:#000000;stroke-width:0.0930374;stroke-dasharray:none"
       d="m 186.2011,349.13855 c -0.29689,-0.16772 -0.33397,-0.83202 -0.0626,-1.12211 0.10577,-0.11307 0.19976,-0.15847 0.50145,-0.24223 0.34926,-0.097 0.66425,-0.13495 1.6411,-0.19793 0.86176,-0.0556 0.80376,-0.0559 0.80371,0.005 -4e-5,0.0424 -0.15242,0.94764 -0.18971,1.12695 -0.0115,0.0555 -0.0213,0.0608 -0.11245,0.0608 -0.13788,0 -0.7633,0.10757 -1.61103,0.27708 -0.39266,0.0785 -0.75175,0.1426 -0.79799,0.1424 -0.0462,-2e-4 -0.12383,-0.0228 -0.17245,-0.0503 z"
       id="path32"
       transform="matrix(0.26458333,0,0,0.26458333,-1.9148867,1.5319094)" /><path
       style="fill:none;fill-opacity:1;stroke:#000000;stroke-width:0.0930374;stroke-dasharray:none"
       d="m 186.2339,349.08189 c -0.0532,-0.0284 -0.0974,-0.0807 -0.14328,-0.16969 -0.0609,-0.11816 -0.0663,-0.14681 -0.0659,-0.35119 4.7e-4,-0.24391 0.0345,-0.35333 0.15363,-0.49431 0.16332,-0.19323 0.66141,-0.32148 1.51427,-0.38988 0.63627,-0.051 1.30181,-0.0879 1.3168,-0.0729 0.0123,0.0123 -0.0476,0.40704 -0.13729,0.90475 l -0.0347,0.19231 -0.10285,0.0134 c -0.32424,0.0422 -0.7449,0.11475 -1.46803,0.25307 -0.44701,0.0855 -0.84491,0.15545 -0.88423,0.15545 -0.0393,0 -0.10613,-0.0185 -0.14848,-0.041 z"
       id="path33"
       transform="matrix(0.26458333,0,0,0.26458333,-1.9148867,1.5319094)" /><path
       style="fill:none;fill-opacity:1;stroke:#000000;stroke-width:0.0930374;stroke-dasharray:none"
       d="m 186.24551,349.00866 c -0.20602,-0.16206 -0.22464,-0.65318 -0.0335,-0.88425 0.11461,-0.13857 0.39179,-0.24183 0.8509,-0.31699 0.24506,-0.0401 1.09771,-0.11383 1.55482,-0.13441 l 0.33948,-0.0153 -0.0123,0.0642 c -0.007,0.0353 -0.0444,0.25905 -0.0836,0.49725 l -0.0713,0.43309 -0.21168,0.0271 c -0.11642,0.0149 -0.45529,0.0718 -0.75305,0.12627 -1.58634,0.29046 -1.4851,0.27745 -1.57973,0.20302 z"
       id="path34"
       transform="matrix(0.26458333,0,0,0.26458333,-1.9148867,1.5319094)" /><path
       style="fill:none;fill-opacity:1;stroke:#000000;stroke-width:0.0930374;stroke-dasharray:none"
       d="m 189.05225,348.66441 c 0.006,-0.0334 0.0255,-0.1602 0.0437,-0.28174 0.0182,-0.12153 0.0638,-0.38115 0.10134,-0.57692 l 0.0682,-0.35595 0.22453,-0.0138 c 0.12348,-0.008 0.66204,-0.0204 1.19679,-0.0285 1.05292,-0.016 1.2049,-0.006 1.37176,0.0914 0.17197,0.10028 0.26217,0.29953 0.2259,0.49905 -0.0724,0.39824 -0.24689,0.47653 -1.17781,0.52844 -0.40859,0.0228 -0.80941,0.0612 -1.60204,0.15364 -0.49394,0.0576 -0.46527,0.0586 -0.45237,-0.0156 z"
       id="path35"
       transform="matrix(0.26458333,0,0,0.26458333,-1.9148867,1.5319094)" /><path
       style="fill:none;fill-opacity:1;stroke:#000000;stroke-width:0.0930374;stroke-dasharray:none"
       d="m 189.11709,348.60917 c 0.006,-0.0274 0.0408,-0.22374 0.0772,-0.43642 0.0363,-0.21268 0.0773,-0.44839 0.091,-0.52378 l 0.0249,-0.13708 0.10278,-0.0157 c 0.0565,-0.009 0.63495,-0.0166 1.28536,-0.0176 l 1.18258,-0.002 0.10991,0.0564 c 0.3518,0.18071 0.30203,0.71674 -0.0775,0.83502 -0.13449,0.0419 -0.35738,0.069 -0.85428,0.10372 -0.45824,0.032 -1.33291,0.11788 -1.68296,0.16515 -0.24805,0.0335 -0.27195,0.0309 -0.25887,-0.0279 z"
       id="path36"
       transform="matrix(0.26458333,0,0,0.26458333,-1.9148867,1.5319094)" /><path
       style="fill:none;fill-opacity:1;stroke:#000000;stroke-width:0.0930374;stroke-dasharray:none"
       d="m 189.18426,348.56497 c 0.005,-0.0152 0.0135,-0.0525 0.0182,-0.0829 0.005,-0.0304 0.0416,-0.25018 0.0821,-0.48843 l 0.0736,-0.43319 0.29767,-0.0143 c 0.16372,-0.008 0.72407,-0.0143 1.24523,-0.0143 0.89687,0 0.95209,0.002 1.03229,0.0432 0.30247,0.15431 0.31313,0.56424 0.0183,0.70478 -0.13386,0.0638 -0.27351,0.0835 -1.04394,0.14728 -0.37675,0.0312 -0.90377,0.0811 -1.17114,0.11088 -0.56563,0.0631 -0.56509,0.063 -0.55238,0.0269 z"
       id="path37"
       transform="matrix(0.26458333,0,0,0.26458333,-1.9148867,1.5319094)" /><path
       style="fill:none;fill-opacity:1;stroke:#000000;stroke-width:0.0930374;stroke-dasharray:none"
       d="m 189.26123,348.51258 c -1.8e-4,-0.0107 0.0317,-0.21473 0.0707,-0.45345 l 0.0711,-0.43402 0.0981,-0.0134 c 0.0539,-0.007 0.60133,-0.0134 1.21642,-0.0134 1.24588,4e-5 1.21842,-0.003 1.32176,0.15159 0.075,0.11228 0.0842,0.2029 0.0325,0.3198 -0.0831,0.18795 -0.16743,0.20924 -1.19714,0.30242 -0.66453,0.0601 -1.11319,0.10414 -1.48603,0.14576 -0.0699,0.008 -0.1272,0.005 -0.12738,-0.005 z"
       id="path38"
       transform="matrix(0.26458333,0,0,0.26458333,-1.9148867,1.5319094)" /><path
       style="fill:none;fill-opacity:1;stroke:#000000;stroke-width:0.0930374;stroke-dasharray:none"
       d="m 188.57654,350.42916 c -0.36924,-0.14714 -1.74172,-0.82099 -1.79735,-0.88245 -0.0391,-0.0433 -0.0391,-0.0453 0.002,-0.0672 0.0753,-0.0403 0.55834,-0.15321 1.04713,-0.24478 0.26285,-0.0492 0.54562,-0.11043 0.62837,-0.13599 0.23035,-0.0711 0.41773,-0.0277 0.44216,0.10254 0.0126,0.0672 -0.0654,1.07616 -0.0934,1.20876 -0.0156,0.0737 -0.0785,0.0789 -0.22867,0.0191 z"
       id="path39"
       transform="matrix(0.26458333,0,0,0.26458333,-1.9148867,1.5319094)" /><path
       style="fill:none;fill-opacity:1;stroke:#000000;stroke-width:0.0930374;stroke-dasharray:none"
       d="m 188.37767,350.27748 c -0.45762,-0.2074 -1.50261,-0.73201 -1.50261,-0.75435 0,-0.0248 0.28314,-0.0927 1.01647,-0.24367 0.29776,-0.0613 0.57612,-0.12159 0.61857,-0.13399 0.11859,-0.0346 0.23254,-0.0272 0.2894,0.0188 l 0.0511,0.0414 -0.0385,0.50554 c -0.052,0.68291 -0.0537,0.69358 -0.11139,0.69242 -0.0258,-5.2e-4 -0.17111,-0.0573 -0.32302,-0.12613 z"
       id="path40"
       transform="matrix(0.26458333,0,0,0.26458333,-1.9148867,1.5319094)" /><path
       style="fill:none;fill-opacity:1;stroke:#000000;stroke-width:0.0930374;stroke-dasharray:none"
       d="m 188.45501,350.24706 c -0.26397,-0.1175 -1.33685,-0.64852 -1.3888,-0.68739 -0.046,-0.0344 0.003,-0.0471 1.00517,-0.25966 0.54399,-0.11538 0.6619,-0.12943 0.6982,-0.0832 0.0202,0.0257 -0.0444,1.0227 -0.0709,1.0938 -0.0141,0.0378 -0.0185,0.0367 -0.24369,-0.0636 z"
       id="path41"
       transform="matrix(0.26458333,0,0,0.26458333,-1.9148867,1.5319094)" /><path
       style="fill:none;fill-opacity:1;stroke:#000000;stroke-width:0.0930374;stroke-dasharray:none"
       d="m 187.88292,349.90173 -0.70467,-0.34854 0.11909,-0.0261 c 0.64061,-0.14052 1.29116,-0.27155 1.3482,-0.27155 h 0.0703 l -0.0164,0.33698 c -0.0253,0.5203 -0.0403,0.64492 -0.0787,0.65183 -0.0182,0.003 -0.35024,-0.15089 -0.73781,-0.34259 z"
       id="path42"
       transform="matrix(0.26458333,0,0,0.26458333,-1.9148867,1.5319094)" /><path
       style="fill:none;fill-opacity:1;stroke:#000000;stroke-width:0.0930374;stroke-dasharray:none"
       d="m 189.00743,350.61797 c -0.0784,-0.0237 -0.0892,-0.0354 -0.096,-0.10351 -0.0175,-0.17733 0.0703,-1.2286 0.10572,-1.2657 0.009,-0.01 0.22477,0.0847 0.47871,0.21001 0.25395,0.1253 0.7128,0.34094 1.01967,0.47922 0.30687,0.13828 0.55795,0.25824 0.55795,0.26659 0,0.008 -0.19639,0.0575 -0.43642,0.10919 -0.24003,0.0517 -0.64026,0.14218 -0.8894,0.20104 -0.53493,0.12639 -0.62298,0.13866 -0.74026,0.10316 z"
       id="path43"
       transform="matrix(0.26458333,0,0,0.26458333,-1.9148867,1.5319094)" /><path
       style="fill:none;fill-opacity:1;stroke:#000000;stroke-width:0.0930374;stroke-dasharray:none"
       d="m 189.0206,350.55847 -0.0531,-0.0224 0.0137,-0.33643 c 0.0146,-0.36003 0.056,-0.80606 0.0787,-0.84835 0.009,-0.0174 0.15786,0.0427 0.45579,0.18426 0.24306,0.11553 0.64578,0.30424 0.89493,0.41936 0.24914,0.11512 0.45994,0.21616 0.46843,0.22453 0.0172,0.017 -1.56687,0.38097 -1.71264,0.39351 -0.051,0.004 -0.11657,-0.002 -0.14579,-0.0145 z"
       id="path44"
       transform="matrix(0.26458333,0,0,0.26458333,-1.9148867,1.5319094)" /><path
       style="fill:none;fill-opacity:1;stroke:#000000;stroke-width:0.0930374;stroke-dasharray:none"
       d="m 189.03771,350.50162 c -0.0139,-0.0954 0.0363,-0.94806 0.0607,-1.03067 0.006,-0.0213 0.021,-0.0387 0.0327,-0.0387 0.0217,0 1.26595,0.57703 1.46726,0.68046 l 0.11049,0.0568 -0.16573,0.0394 c -1.02163,0.24293 -1.4992,0.33578 -1.50547,0.29271 z"
       id="path45"
       transform="matrix(0.26458333,0,0,0.26458333,-1.9148867,1.5319094)" /><path
       style="fill:none;fill-opacity:1;stroke:#000000;stroke-width:0.0930374;stroke-dasharray:none"
       d="m 189.09316,350.29168 c 0.007,-0.0898 0.0184,-0.26278 0.0253,-0.38431 0.007,-0.12153 0.018,-0.26218 0.0247,-0.31254 l 0.0122,-0.0916 0.37902,0.17547 c 1.03645,0.47986 1.01767,0.47027 0.95008,0.48502 -0.0346,0.008 -0.31143,0.0693 -0.61526,0.1372 -0.30384,0.0679 -0.60561,0.13037 -0.67062,0.13878 l -0.11819,0.0153 z"
       id="path46"
       transform="matrix(0.26458333,0,0,0.26458333,-1.9148867,1.5319094)" /><path
       style="fill:none;fill-opacity:1;stroke:#000000;stroke-width:0.0930374;stroke-dasharray:none"
       d="m 186.10064,353.05701 c -0.10968,-0.058 -0.25374,-0.20314 -0.30887,-0.31121 -0.0773,-0.15156 -0.0959,-0.31673 -0.0568,-0.50446 0.0505,-0.24198 0.13417,-0.37586 0.28062,-0.44874 0.19754,-0.0983 1.52651,-0.48752 2.50567,-0.7338 0.21876,-0.055 0.58667,-0.1503 0.81759,-0.21172 0.23091,-0.0614 0.74799,-0.18225 1.14905,-0.26848 0.40106,-0.0862 0.76273,-0.17062 0.80372,-0.18752 0.0963,-0.0397 0.15414,-0.0387 0.28379,0.005 0.24325,0.0815 0.35653,0.25294 0.37628,0.56952 0.0101,0.16227 0.006,0.19224 -0.0444,0.2907 -0.0306,0.0604 -0.0746,0.12688 -0.0977,0.14779 -0.1195,0.10797 -0.47161,0.22265 -1.68628,0.54922 -1.17677,0.31637 -1.15346,0.31084 -1.24482,0.2954 -0.0695,-0.0117 -0.0903,-0.006 -0.11559,0.0297 -0.017,0.0242 -0.10314,0.0695 -0.19149,0.10054 -0.25234,0.0887 -1.40476,0.44357 -1.80299,0.55514 -0.1984,0.0556 -0.396,0.1158 -0.43911,0.13382 -0.0999,0.0417 -0.13249,0.0402 -0.2287,-0.0106 z m 2.76733,-1.33949 c 0.0195,-0.10989 0.0216,-0.39266 0.004,-0.5009 -0.0166,-0.10066 -0.0636,-0.10852 -0.0825,-0.0138 -0.0179,0.0897 -0.0178,0.45775 1.8e-4,0.54777 0.0185,0.0924 0.0593,0.0752 0.0786,-0.0331 z"
       id="path47"
       transform="matrix(0.26458333,0,0,0.26458333,-1.9148867,1.5319094)" /><path
       style="fill:none;fill-opacity:1;stroke:#000000;stroke-width:0.0930374;stroke-dasharray:none"
       d="m 186.11271,352.99312 c -0.22058,-0.13583 -0.36105,-0.40016 -0.33548,-0.63132 0.032,-0.2899 0.12629,-0.45036 0.31262,-0.53231 0.32337,-0.14222 1.64552,-0.51535 3.35952,-0.94811 0.72184,-0.18226 1.88674,-0.44114 1.9905,-0.44236 0.0877,-0.001 0.13575,0.0132 0.21976,0.0652 0.15408,0.0953 0.21556,0.22339 0.22653,0.47206 0.008,0.18144 0.005,0.19568 -0.0585,0.29458 -0.0392,0.061 -0.10171,0.1217 -0.1511,0.1469 -0.14816,0.0756 -0.54853,0.19878 -1.40962,0.43377 -1.1265,0.30742 -1.27132,0.34292 -1.39894,0.34292 -0.0664,0 -0.11932,0.0121 -0.1348,0.0307 -0.014,0.0169 -0.0724,0.0509 -0.12977,0.0755 -0.15584,0.067 -2.33565,0.73353 -2.39828,0.73334 -0.0144,-5e-5 -0.056,-0.0185 -0.0925,-0.0409 z m 2.78888,-1.19645 c 0.0344,-0.0682 0.0389,-0.60218 0.006,-0.66436 -0.0314,-0.0586 -0.12352,-0.0553 -0.15607,0.005 -0.0353,0.0659 -0.0347,0.61206 7.2e-4,0.67825 0.0345,0.0645 0.11255,0.0543 0.14972,-0.0194 z"
       id="path48"
       transform="matrix(0.26458333,0,0,0.26458333,-1.9148867,1.5319094)" /><path
       style="fill:none;fill-opacity:1;stroke:#000000;stroke-width:0.0930374;stroke-dasharray:none"
       d="m 186.07128,352.87724 c -0.0566,-0.0498 -0.13008,-0.13682 -0.16331,-0.19335 -0.0522,-0.0888 -0.0604,-0.12674 -0.0604,-0.27955 0,-0.15222 0.009,-0.19519 0.0663,-0.30936 0.0494,-0.0987 0.0889,-0.14527 0.15468,-0.18223 0.18366,-0.10317 1.24003,-0.41709 2.54117,-0.75515 l 0.0663,-0.0172 v 0.33688 c 0,0.30027 0.005,0.34193 0.0421,0.38339 0.0579,0.0639 0.15384,0.0602 0.20752,-0.008 0.0526,-0.0669 0.0806,-0.41008 0.0514,-0.63047 -0.0105,-0.079 -0.016,-0.1471 -0.0124,-0.15133 0.0206,-0.0238 1.50631,-0.37763 2.15044,-0.51217 0.37693,-0.0787 0.44407,-0.0747 0.5604,0.0339 0.0993,0.0926 0.13425,0.18422 0.14489,0.37958 0.0164,0.30072 -0.0477,0.36597 -0.50424,0.51297 -0.62072,0.19988 -2.15985,0.61297 -2.39486,0.64277 -0.1083,0.0137 -0.20326,0.0411 -0.26268,0.0756 -0.12223,0.071 -2.34282,0.76438 -2.44807,0.76438 -0.02,0 -0.0826,-0.0408 -0.13921,-0.0906 z"
       id="path49"
       transform="matrix(0.26458333,0,0,0.26458333,-1.9148867,1.5319094)" /><path
       style="fill:none;fill-opacity:1;stroke:#000000;stroke-width:0.0930374;stroke-dasharray:none"
       d="m 186.0762,352.79183 c -0.13599,-0.14109 -0.17341,-0.22616 -0.17341,-0.3943 0,-0.10048 0.0152,-0.16024 0.0675,-0.26484 0.0786,-0.15734 0.13504,-0.19082 0.54017,-0.32057 0.46812,-0.14991 2.02958,-0.5899 2.0937,-0.58996 0.009,-10e-6 0.0166,0.12861 0.0166,0.28581 0,0.1572 0.01,0.31181 0.022,0.34357 0.013,0.0342 0.0536,0.071 0.0994,0.0901 0.0672,0.0281 0.0874,0.0282 0.1524,10e-4 0.11107,-0.0464 0.135,-0.13804 0.135,-0.51683 v -0.31552 l 0.0773,-0.0208 c 0.51412,-0.13837 2.1044,-0.4988 2.30058,-0.52141 0.1204,-0.0139 0.12669,-0.0119 0.21501,0.0679 0.10537,0.0952 0.13576,0.18189 0.13594,0.38782 1.5e-4,0.18206 -0.0318,0.2297 -0.20754,0.30919 -0.2475,0.11196 -1.8664,0.5705 -2.45504,0.69536 -0.15799,0.0335 -0.39167,0.0985 -0.51928,0.14452 -0.49912,0.17979 -2.11105,0.6821 -2.30505,0.7183 -0.0804,0.015 -0.0894,0.0105 -0.19529,-0.0994 z"
       id="path50"
       transform="matrix(0.26458333,0,0,0.26458333,-1.9148867,1.5319094)" /><path
       style="fill:none;fill-opacity:1;stroke:#000000;stroke-width:0.0930374;stroke-dasharray:none"
       d="m 187.93572,353.75591 c -0.079,-0.0288 -0.32474,-0.11856 -0.54611,-0.19939 -0.40082,-0.14635 -0.68165,-0.26791 -0.70456,-0.30498 -0.0178,-0.0288 0.0921,-0.069 0.59074,-0.21589 0.24751,-0.0729 0.5395,-0.16305 0.64889,-0.20029 0.29661,-0.101 0.44138,-0.13458 0.65308,-0.15149 l 0.19124,-0.0153 0.0142,0.30982 c 0.008,0.1704 0.0142,0.40987 0.0143,0.53216 l 8e-5,0.22234 -0.29279,0.0272 c -0.16103,0.0149 -0.32261,0.0319 -0.35907,0.0377 -0.0391,0.006 -0.12523,-0.011 -0.20993,-0.0419 z"
       id="path51"
       transform="matrix(0.26458333,0,0,0.26458333,-1.9148867,1.5319094)" /><path
       style="fill:none;fill-opacity:1;stroke:#000000;stroke-width:0.0930374;stroke-dasharray:none"
       d="m 187.83629,353.65571 c -0.52273,-0.18288 -1.04328,-0.39223 -1.02378,-0.41173 0.004,-0.004 0.18671,-0.0624 0.40532,-0.12897 0.21862,-0.0666 0.56156,-0.17149 0.76209,-0.23303 0.32686,-0.10032 0.69852,-0.17316 0.72886,-0.14286 0.006,0.006 0.0149,0.21894 0.0191,0.47262 l 0.008,0.46123 -0.0519,0.0104 c -0.0577,0.0115 -0.51904,0.0581 -0.57122,0.0577 -0.0182,-1.4e-4 -0.14253,-0.0385 -0.27621,-0.0853 z"
       id="path52"
       transform="matrix(0.26458333,0,0,0.26458333,-1.9148867,1.5319094)" /><path
       style="fill:none;fill-opacity:1;stroke:#000000;stroke-width:0.0930374;stroke-dasharray:none"
       d="m 187.64846,353.52398 c -0.60121,-0.22466 -0.66663,-0.25199 -0.64732,-0.27051 0.0583,-0.0559 1.62019,-0.49186 1.65054,-0.46071 0.005,0.005 0.0125,0.19477 0.0167,0.42142 l 0.008,0.41208 -0.0983,0.0135 c -0.054,0.007 -0.19326,0.0188 -0.30935,0.0252 l -0.21109,0.0118 z"
       id="path53"
       transform="matrix(0.26458333,0,0,0.26458333,-1.9148867,1.5319094)" /><path
       style="fill:none;fill-opacity:1;stroke:#000000;stroke-width:0.0930374;stroke-dasharray:none"
       d="m 187.58763,353.43735 c -0.25159,-0.0952 -0.43541,-0.1761 -0.41984,-0.18472 0.0711,-0.0394 1.40542,-0.40599 1.42098,-0.39044 0.004,0.004 0.014,0.1668 0.0226,0.36215 l 0.0156,0.35519 -0.17217,0.0146 c -0.35901,0.0303 -0.38559,0.0255 -0.86715,-0.15673 z"
       id="path54"
       transform="matrix(0.26458333,0,0,0.26458333,-1.9148867,1.5319094)" /><path
       style="fill:none;fill-opacity:1;stroke:#000000;stroke-width:0.0930374;stroke-dasharray:none"
       d="m 188.91945,353.29104 c -0.017,-0.43138 -0.006,-0.5 0.0785,-0.5 0.0243,0 0.18058,0.0534 0.34725,0.1187 0.16667,0.0653 0.55511,0.2101 0.86321,0.32181 0.30809,0.11171 0.61138,0.22582 0.67396,0.25357 l 0.11379,0.0505 -0.0884,0.0143 c -0.18207,0.0294 -1.72477,0.14657 -1.93633,0.14709 -0.0314,8e-5 -0.038,-0.052 -0.052,-0.40589 z"
       id="path55"
       transform="matrix(0.26458333,0,0,0.26458333,-1.9148867,1.5319094)" /><path
       style="fill:none;fill-opacity:1;stroke:#000000;stroke-width:0.0930374;stroke-dasharray:none"
       d="m 188.98899,353.51793 c -0.008,-0.0656 -0.0144,-0.24103 -0.0145,-0.38991 -1.5e-4,-0.20619 0.007,-0.27069 0.0283,-0.27069 0.0157,0 0.35125,0.11982 0.74578,0.26627 1.00529,0.37316 1.03262,0.38402 0.98248,0.39042 -0.0992,0.0127 -1.21208,0.0956 -1.46048,0.10886 l -0.26723,0.0143 z"
       id="path56"
       transform="matrix(0.26458333,0,0,0.26458333,-1.9148867,1.5319094)" /><path
       style="fill:none;fill-opacity:1;stroke:#000000;stroke-width:0.0930374;stroke-dasharray:none"
       d="m 189.05208,353.5466 c -0.006,-0.0165 -0.0115,-0.16227 -0.0115,-0.32397 v -0.29399 l 0.55795,0.20518 c 0.30687,0.11285 0.63701,0.23462 0.73363,0.27061 l 0.17568,0.0654 -0.12044,0.0139 c -0.0662,0.008 -0.35411,0.0291 -0.63971,0.0476 -0.28561,0.0186 -0.55637,0.0363 -0.6017,0.0395 -0.0533,0.004 -0.0865,-0.005 -0.0939,-0.0242 z"
       id="path57"
       transform="matrix(0.26458333,0,0,0.26458333,-1.9148867,1.5319094)" /><path
       style="fill:none;fill-opacity:1;stroke:#000000;stroke-width:0.0930374;stroke-dasharray:none"
       d="m 189.10687,353.26965 v -0.25562 l 0.13811,0.0523 c 0.076,0.0288 0.3241,0.12027 0.55142,0.20329 0.22732,0.083 0.40631,0.15715 0.39775,0.16476 -0.009,0.008 -0.21445,0.0255 -0.45751,0.0398 -0.24307,0.0143 -0.48421,0.0316 -0.53586,0.0385 l -0.0939,0.0125 z"
       id="path58"
       transform="matrix(0.26458333,0,0,0.26458333,-1.9148867,1.5319094)" /><path
       style="fill:none;fill-opacity:1;stroke:#000000;stroke-width:0.0930374;stroke-dasharray:none"
       d="m 185.94077,355.30458 c -0.13599,-0.19757 -0.17816,-0.31656 -0.17816,-0.5027 0,-0.18957 0.0459,-0.31702 0.16144,-0.44866 0.12139,-0.13826 0.22746,-0.1579 1.39499,-0.25829 0.78105,-0.0672 0.93103,-0.0831 1.27336,-0.13573 0.0999,-0.0154 0.18937,-0.0202 0.19887,-0.0107 0.0121,0.0121 0.0496,1.24304 0.0392,1.28848 -0.004,0.017 -0.36498,0.0562 -0.77325,0.084 -0.37559,0.0256 -1.87058,0.0996 -2.01126,0.0996 -0.014,0 -0.0613,-0.0522 -0.10523,-0.11601 z"
       id="path59"
       transform="matrix(0.26458333,0,0,0.26458333,-1.9148867,1.5319094)" /><path
       style="fill:none;fill-opacity:1;stroke:#000000;stroke-width:0.0930374;stroke-dasharray:none"
       d="m 185.99095,355.26371 c -0.20198,-0.27428 -0.22652,-0.59038 -0.0633,-0.81569 0.1232,-0.17008 0.24346,-0.19522 1.4225,-0.29741 0.35245,-0.0305 0.80328,-0.0763 1.00185,-0.10162 0.19856,-0.0253 0.3676,-0.0395 0.37565,-0.0315 0.0163,0.0163 0.0585,1.15664 0.0433,1.17179 -0.0302,0.0302 -1.36387,0.12038 -2.31875,0.15678 l -0.38968,0.0149 z"
       id="path60"
       transform="matrix(0.26458333,0,0,0.26458333,-1.9148867,1.5319094)" /><path
       style="fill:none;fill-opacity:1;stroke:#000000;stroke-width:0.0930374;stroke-dasharray:none"
       d="m 186.05088,355.23936 c -0.1031,-0.13748 -0.15441,-0.26729 -0.16422,-0.41539 -0.008,-0.12509 -0.001,-0.15931 0.053,-0.26516 0.11011,-0.21399 0.2108,-0.24009 1.32207,-0.34268 0.3403,-0.0314 0.79667,-0.0768 1.01415,-0.10076 0.21749,-0.024 0.39857,-0.0405 0.40241,-0.0367 0.004,0.004 0.0138,0.24602 0.0222,0.53819 l 0.0153,0.53122 -0.31824,0.026 c -0.43982,0.0359 -1.30613,0.0868 -1.74351,0.10253 -0.20053,0.007 -0.40599,0.0182 -0.45658,0.0244 -0.0841,0.0103 -0.0967,0.005 -0.14663,-0.0616 z"
       id="path61"
       transform="matrix(0.26458333,0,0,0.26458333,-1.9148867,1.5319094)" /><path
       style="fill:none;fill-opacity:1;stroke:#000000;stroke-width:0.0930374;stroke-dasharray:none"
       d="m 186.07118,355.16321 c -0.15382,-0.23303 -0.16566,-0.49819 -0.0288,-0.64517 0.11459,-0.12308 0.24907,-0.14972 1.24241,-0.24613 0.3884,-0.0377 0.84397,-0.083 1.01238,-0.10074 0.16841,-0.0177 0.31366,-0.0322 0.32279,-0.0322 0.009,0 0.0183,0.18148 0.0203,0.40327 0.002,0.2218 0.009,0.43496 0.0164,0.47368 0.0119,0.0661 0.008,0.0711 -0.0613,0.0821 -0.13183,0.0208 -1.14916,0.0859 -1.75339,0.11222 -0.158,0.007 -0.3834,0.0183 -0.50091,0.0253 l -0.21364,0.0128 z"
       id="path62"
       transform="matrix(0.26458333,0,0,0.26458333,-1.9148867,1.5319094)" /><path
       style="fill:none;fill-opacity:1;stroke:#000000;stroke-width:0.0930374;stroke-dasharray:none"
       d="m 186.1079,355.10571 c -0.109,-0.18494 -0.12628,-0.38286 -0.0441,-0.50496 0.0612,-0.091 0.12431,-0.12321 0.31952,-0.16341 0.11614,-0.0239 2.05573,-0.23212 2.16211,-0.23209 0.0161,0 0.0287,0.13743 0.0379,0.41326 0.008,0.22729 0.0112,0.41582 0.008,0.41897 -0.0185,0.0185 -2.03364,0.14005 -2.32258,0.14005 -0.11035,0 -0.1215,-0.005 -0.16089,-0.0718 z"
       id="path63"
       transform="matrix(0.26458333,0,0,0.26458333,-1.9148867,1.5319094)" /><path
       style="fill:none;fill-opacity:1;stroke:#000000;stroke-width:0.0930374;stroke-dasharray:none"
       d="m 188.94479,354.86542 c -0.008,-0.21118 -0.0146,-0.5006 -0.0146,-0.64317 -7e-5,-0.25123 10e-4,-0.25952 0.0496,-0.26897 0.0274,-0.005 0.34803,-0.031 0.71263,-0.0571 0.3646,-0.026 0.84687,-0.0665 1.07171,-0.0901 0.71288,-0.0745 0.90026,-0.0557 1.06714,0.10714 0.1094,0.10677 0.15538,0.26161 0.15559,0.52396 1.6e-4,0.2042 -0.0452,0.36052 -0.13277,0.45725 -0.0981,0.10842 -0.4448,0.17293 -1.22254,0.22748 -0.9816,0.0688 -1.42729,0.10179 -1.54874,0.11447 l -0.12347,0.0129 z"
       id="path64"
       transform="matrix(0.26458333,0,0,0.26458333,-1.9148867,1.5319094)" /><path
       style="fill:none;fill-opacity:1;stroke:#000000;stroke-width:0.0930374;stroke-dasharray:none"
       d="m 189.01088,355.04459 c -0.0175,-0.16761 -0.0195,-1.03821 -0.002,-1.03821 0.0569,0 1.50833,-0.11809 1.76667,-0.14373 0.46554,-0.0462 0.7714,-0.0432 0.88388,0.009 0.19321,0.0892 0.26089,0.22943 0.26239,0.54381 0.001,0.24563 -0.0461,0.39681 -0.14431,0.46105 -0.13913,0.091 -0.54039,0.14581 -1.64278,0.22424 -0.42536,0.0303 -0.84891,0.0613 -0.9412,0.0689 l -0.1678,0.0139 z"
       id="path65"
       transform="matrix(0.26458333,0,0,0.26458333,-1.9148867,1.5319094)" /><path
       style="fill:none;fill-opacity:1;stroke:#000000;stroke-width:0.0930374;stroke-dasharray:none"
       d="m 189.07925,355.09897 c -0.009,-0.009 -0.0166,-0.24748 -0.0166,-0.52893 v -0.51173 l 0.35907,-0.0264 c 0.1975,-0.0145 0.65177,-0.0519 1.0095,-0.0829 0.40044,-0.0348 0.75357,-0.0537 0.91883,-0.0493 0.25652,0.007 0.27212,0.0101 0.35183,0.0709 0.0459,0.035 0.0971,0.0965 0.11391,0.13672 0.0767,0.18349 0.0568,0.56145 -0.0356,0.67899 -0.0849,0.10789 -0.40671,0.15984 -1.52515,0.24617 -1.0011,0.0773 -1.1569,0.0861 -1.17581,0.0665 z"
       id="path66"
       transform="matrix(0.26458333,0,0,0.26458333,-1.9148867,1.5319094)" /><path
       style="fill:none;fill-opacity:1;stroke:#000000;stroke-width:0.0930374;stroke-dasharray:none"
       d="m 189.12897,354.58191 v -0.46304 l 0.0718,-0.0107 c 0.22231,-0.0331 1.59261,-0.13099 1.95007,-0.13926 0.39274,-0.009 0.42441,-0.007 0.49059,0.035 0.0988,0.0625 0.14462,0.16429 0.15655,0.34819 0.0127,0.19527 -0.0268,0.37415 -0.0919,0.41684 -0.07,0.0459 -0.2955,0.0925 -0.63255,0.1307 -0.35319,0.0401 -1.68396,0.1453 -1.8375,0.1453 h -0.10704 z"
       id="path67"
       transform="matrix(0.26458333,0,0,0.26458333,-1.9148867,1.5319094)" /><path
       style="fill:none;fill-opacity:1;stroke:#000000;stroke-width:0.0930374;stroke-dasharray:none"
       d="m 189.91341,343.13225 c -0.49964,-0.0976 -1.66199,-0.30369 -1.80794,-0.32062 -0.15896,-0.0184 -0.24751,-0.0759 -0.33479,-0.21718 -0.0613,-0.0993 -0.0669,-0.12439 -0.0657,-0.29789 9.6e-4,-0.14235 0.0137,-0.221 0.0512,-0.31628 0.11112,-0.28214 0.28888,-0.4572 0.48182,-0.47449 0.0964,-0.009 0.1797,0.02 0.87555,0.3014 0.42296,0.17101 0.97484,0.39663 1.22638,0.50136 0.25155,0.10473 0.47914,0.19873 0.50576,0.20889 l 0.0484,0.0185 -0.0781,0.19371 c -0.11033,0.27363 -0.17599,0.39658 -0.23314,0.43661 -0.0737,0.0516 -0.28649,0.0408 -0.66945,-0.034 z"
       id="path68"
       transform="matrix(0.26458333,0,0,0.26458333,-1.9148867,1.5319094)" /><path
       style="fill:none;fill-opacity:1;stroke:#000000;stroke-width:0.0930374;stroke-dasharray:none"
       d="m 189.6372,343.02184 c -0.32207,-0.0601 -0.81755,-0.1489 -1.10107,-0.19742 -0.28353,-0.0485 -0.5446,-0.10327 -0.58015,-0.12165 -0.22977,-0.11882 -0.2617,-0.52713 -0.0667,-0.85316 0.1142,-0.19095 0.25981,-0.29228 0.40002,-0.27837 0.0549,0.005 0.34703,0.10954 0.65186,0.23226 0.82059,0.33035 1.84949,0.75361 1.86175,0.76586 0.0157,0.0157 -0.14209,0.38536 -0.20587,0.48239 l -0.0545,0.0829 -0.15989,-0.002 c -0.0903,-0.001 -0.41487,-0.0493 -0.74546,-0.11098 z"
       id="path69"
       transform="matrix(0.26458333,0,0,0.26458333,-1.9148867,1.5319094)" /><path
       style="fill:none;fill-opacity:1;stroke:#000000;stroke-width:0.0930374;stroke-dasharray:none"
       d="m 190.16753,343.05313 c -0.47262,-0.0785 -1.967,-0.34959 -2.06608,-0.37483 -0.1569,-0.04 -0.17694,-0.0544 -0.23623,-0.17066 -0.0373,-0.073 -0.0434,-0.11781 -0.0352,-0.25559 0.0122,-0.20444 0.0879,-0.37273 0.23078,-0.51299 0.16969,-0.16654 0.13088,-0.17671 1.57644,0.4132 0.45575,0.18598 0.88333,0.36047 0.95017,0.38775 0.0669,0.0273 0.12862,0.0555 0.13727,0.0627 0.009,0.007 -0.033,0.11493 -0.0927,0.23936 l -0.1084,0.22622 -0.15041,-0.003 c -0.0827,-0.002 -0.17526,-0.007 -0.20564,-0.0122 z"
       id="path70"
       transform="matrix(0.26458333,0,0,0.26458333,-1.9148867,1.5319094)" /><path
       style="fill:none;fill-opacity:1;stroke:#000000;stroke-width:0.0930374;stroke-dasharray:none"
       d="m 189.81398,342.93365 c -0.91554,-0.16114 -1.71862,-0.31484 -1.78288,-0.34121 -0.10871,-0.0446 -0.14672,-0.14053 -0.13479,-0.34014 0.0115,-0.19327 0.0614,-0.30809 0.19848,-0.45676 0.0606,-0.0658 0.10776,-0.0972 0.14564,-0.0972 0.0957,0 0.46678,0.13815 1.44956,0.53967 0.52125,0.21295 0.95196,0.39142 0.95712,0.39659 0.005,0.005 -0.0274,0.09 -0.0724,0.18844 l -0.0818,0.17903 -0.15713,-0.002 c -0.0864,-10e-4 -0.3212,-0.031 -0.52173,-0.0663 z"
       id="path71"
       transform="matrix(0.26458333,0,0,0.26458333,-1.9148867,1.5319094)" /><path
       style="fill:none;fill-opacity:1;stroke:#000000;stroke-width:0.0930374;stroke-dasharray:none"
       d="m 192.77499,343.66479 c -0.27346,-0.0471 -0.75572,-0.13998 -1.07171,-0.20637 -0.52707,-0.11075 -0.79448,-0.16053 -0.93913,-0.17485 -0.0446,-0.004 -0.0541,-0.0161 -0.0494,-0.0606 0.006,-0.0571 0.22054,-0.61568 0.24879,-0.64786 0.009,-0.01 0.44729,0.17272 0.97448,0.40602 0.52718,0.23331 1.12756,0.49837 1.33417,0.58903 0.20661,0.0907 0.37979,0.16897 0.38486,0.17402 0.005,0.005 -0.0795,0.009 -0.18783,0.008 -0.12235,-9e-4 -0.38547,-0.0339 -0.69421,-0.0871 z"
       id="path72"
       transform="matrix(0.26458333,0,0,0.26458333,-1.9148867,1.5319094)" /><path
       style="fill:none;fill-opacity:1;stroke:#000000;stroke-width:0.0930374;stroke-dasharray:none"
       d="m 193.19483,343.67199 c -0.0304,-0.005 -0.17954,-0.0291 -0.33146,-0.0537 -0.15191,-0.0245 -0.6467,-0.11857 -1.09953,-0.20893 -0.45282,-0.0904 -0.8456,-0.16444 -0.87283,-0.16463 -0.1173,-8e-4 -0.11888,-0.024 -0.0198,-0.29071 0.0511,-0.13768 0.10148,-0.26392 0.11187,-0.28053 0.0205,-0.0328 0.38872,0.11935 1.72563,0.71303 0.6148,0.27301 0.69379,0.31939 0.48614,0.28544 z"
       id="path73"
       transform="matrix(0.26458333,0,0,0.26458333,-1.9148867,1.5319094)" /><path
       style="fill:none;fill-opacity:1;stroke:#000000;stroke-width:0.0930374;stroke-dasharray:none"
       d="m 192.69765,343.53081 c -0.0486,-0.0104 -0.45631,-0.089 -0.90598,-0.17471 -0.44968,-0.0857 -0.84435,-0.16312 -0.87706,-0.17207 l -0.0594,-0.0163 0.0786,-0.20992 c 0.0433,-0.11546 0.0817,-0.21338 0.0856,-0.21761 0.0145,-0.0161 0.46695,0.17277 1.44526,0.60319 0.46489,0.20453 0.47553,0.21024 0.38773,0.208 -0.0365,-9.3e-4 -0.10607,-0.0102 -0.15468,-0.0206 z"
       id="path74"
       transform="matrix(0.26458333,0,0,0.26458333,-1.9148867,1.5319094)" /></g><g
     inkscape:groupmode="layer"
     id="layer3"
     inkscape:label="drawing"
     style="display:inline"
     transform="matrix(0.69448695,0,0,0.69448695,35.417103,33.90379)"><g
       id="g62"
       transform="matrix(0.69181754,0.5337389,-0.5337389,0.69181754,45.419956,-28.925229)"
       inkscape:label="frog"><rect
         style="display:inline;opacity:1;fill:none;fill-opacity:1;fill-rule:evenodd;stroke:#000000;stroke-width:1;stroke-linecap:butt;stroke-linejoin:miter;stroke-miterlimit:4;stroke-dasharray:none;stroke-dashoffset:0;stroke-opacity:1"
         id="rect1"
         width="24.91688"
         height="17.54447"
         x="26.040936"
         y="49.439342"
         inkscape:export-filename="outline.svg"
         inkscape:export-xdpi="96"
         inkscape:export-ydpi="96"
         transform="rotate(-9.5392714,2.0384641,8.8645349)" /><rect
         style="display:inline;opacity:1;fill:none;fill-opacity:1;fill-rule:evenodd;stroke:#000000;stroke-width:1;stroke-linecap:butt;stroke-linejoin:miter;stroke-miterlimit:4;stroke-dasharray:none;stroke-dashoffset:0;stroke-opacity:1"
         id="rect2"
         width="12.472048"
         height="11.450526"
         x="23.570164"
         y="37.9893"
         transform="rotate(-9.5392714,2.0384641,8.8645349)" /><rect
         style="display:inline;opacity:1;fill:none;fill-opacity:1;fill-rule:evenodd;stroke:#000000;stroke-width:1;stroke-linecap:butt;stroke-linejoin:miter;stroke-miterlimit:4;stroke-dasharray:none;stroke-dashoffset:0;stroke-opacity:1"
         id="rect3"
         width="12.669767"
         height="11.540649"
         x="40.793247"
         y="37.898693"
         transform="rotate(-9.5392714,2.0384641,8.8645349)" /><rect
         style="font-variation-settings:normal;display:inline;opacity:1;fill:none;fill-opacity:1;fill-rule:evenodd;stroke:#000000;stroke-width:1;stroke-linecap:butt;stroke-linejoin:miter;stroke-miterlimit:4;stroke-dasharray:none;stroke-dashoffset:0;stroke-opacity:1;stop-color:#000000;stop-opacity:1"
         id="rect5"
         width="5.7741561"
         height="14.35071"
         x="3.4847426"
         y="67.435211"
         inkscape:transform-center-x="-2.3849091"
         inkscape:transform-center-y="3.7836341"
         transform="rotate(-44.286617)" /><rect
         style="font-variation-settings:normal;display:inline;opacity:1;fill:none;fill-opacity:1;fill-rule:evenodd;stroke:#000000;stroke-width:1;stroke-linecap:butt;stroke-linejoin:miter;stroke-miterlimit:4;stroke-dasharray:none;stroke-dashoffset:0;stroke-opacity:1;stop-color:#000000"
         id="rect5-6"
         width="5.7741561"
         height="14.35071"
         x="-56.001057"
         y="26.73699"
         inkscape:transform-center-x="2.4328915"
         inkscape:transform-center-y="3.619527"
         transform="matrix(-0.91577926,-0.4016819,-0.4016819,0.91577926,0,0)" /><rect
         style="font-variation-settings:normal;display:inline;opacity:1;fill:none;fill-opacity:1;fill-rule:evenodd;stroke:#000000;stroke-width:1;stroke-linecap:butt;stroke-linejoin:miter;stroke-miterlimit:4;stroke-dasharray:none;stroke-dashoffset:0;stroke-opacity:1;stop-color:#000000;stop-opacity:1"
         id="rect6"
         width="5.7409883"
         height="4.93189"
         x="30.070133"
         y="67.074554"
         transform="rotate(-9.5392714,2.0384641,8.8645349)" /><rect
         style="font-variation-settings:normal;display:inline;opacity:1;fill:none;fill-opacity:1;fill-rule:evenodd;stroke:#000000;stroke-width:1;stroke-linecap:butt;stroke-linejoin:miter;stroke-miterlimit:4;stroke-dasharray:none;stroke-dashoffset:0;stroke-opacity:1;stop-color:#000000;stop-opacity:1"
         id="rect7"
         width="5.9059591"
         height="5.1133471"
         x="41.618095"
         y="66.983826"
         transform="rotate(-9.5392714,2.0384641,8.8645349)" /><rect
         style="font-variation-settings:normal;display:inline;opacity:1;fill:none;fill-opacity:1;fill-rule:evenodd;stroke:#000000;stroke-width:1;stroke-linecap:butt;stroke-linejoin:miter;stroke-miterlimit:4;stroke-dasharray:none;stroke-dashoffset:0;stroke-opacity:1;stop-color:#000000;stop-opacity:1"
         id="rect8"
         width="5.8482256"
         height="5.7703247"
         x="47.614788"
         y="37.898693"
         transform="rotate(-9.5392714,2.0384641,8.8645349)" /><rect
         style="font-variation-settings:normal;display:inline;opacity:1;fill:none;fill-opacity:1;fill-rule:evenodd;stroke:#000000;stroke-width:1;stroke-linecap:butt;stroke-linejoin:miter;stroke-miterlimit:4;stroke-dasharray:none;stroke-dashoffset:0;stroke-opacity:1;stop-color:#000000"
         id="rect8-5"
         width="5.886116"
         height="5.6797104"
         x="23.570164"
         y="37.9893"
         transform="rotate(-9.5392714,2.0384641,8.8645349)" /><rect
         style="font-variation-settings:normal;display:inline;opacity:1;fill:none;fill-opacity:1;fill-rule:evenodd;stroke:#000000;stroke-width:1;stroke-linecap:butt;stroke-linejoin:miter;stroke-miterlimit:4;stroke-dasharray:none;stroke-dashoffset:0;stroke-opacity:1;stop-color:#000000"
         id="rect8-5-8"
         width="2.9241104"
         height="5.6797104"
         x="29.45628"
         y="37.9893"
         transform="rotate(-9.5392714,2.0384641,8.8645349)" /><rect
         style="font-variation-settings:normal;display:inline;opacity:1;fill:none;fill-opacity:1;fill-rule:evenodd;stroke:#000000;stroke-width:1;stroke-linecap:butt;stroke-linejoin:miter;stroke-miterlimit:4;stroke-dasharray:none;stroke-dashoffset:0;stroke-opacity:1;stop-color:#000000"
         id="rect8-5-8-9"
         width="2.9241114"
         height="5.7703247"
         x="44.690678"
         y="37.898693"
         transform="rotate(-9.5392714,2.0384641,8.8645349)" /></g><rect
       style="fill:none;stroke:#000000;stroke-width:1.53351;stroke-dasharray:none"
       id="rect9"
       width="19.608286"
       height="12.617509"
       x="11.066979"
       y="87.416489" /><rect
       style="fill:none;stroke:#000000;stroke-width:0.66955902;stroke-dasharray:none"
       id="rect10"
       width="4.1774173"
       height="4.1774173"
       x="18.143011"
       y="91.423393" /><path
       style="fill:none;stroke:#000000;stroke-width:1.53350614;stroke-dasharray:none"
       d="M 20.231718,93.512101 H 4.6729732"
       id="path10" /><rect
       style="fill:#000000;fill-opacity:1;stroke:#000000;stroke-width:1.53351;stroke-dasharray:none"
       id="rect11"
       width="3.3248832"
       height="3.3248832"
       x="3.0105317"
       y="91.849663" /><path
       style="fill:none;fill-opacity:1;stroke:#000000;stroke-width:1.60406;stroke-dasharray:none;marker-end:url(#Triangle)"
       d="M 17.831944,75.236173 35.477065,46.27662"
       id="path75"
       sodipodi:nodetypes="cc" /><path
       style="fill:none;fill-opacity:1;stroke:#000000;stroke-width:1.60406;stroke-dasharray:none;marker-end:url(#Triangle)"
       d="M 26.991245,80.489301 44.636366,51.529748"
       id="path76"
       sodipodi:nodetypes="cc" /></g></svg>
