<?xml version="1.0" encoding="UTF-8" standalone="no"?>
<!-- Created with Inkscape (http://www.inkscape.org/) -->

<svg
   width="500"
   height="500"
   viewBox="0 0 132.29167 132.29167"
   version="1.1"
   id="svg8"
   sodipodi:docname="warning - fan drill.svg"
   inkscape:version="1.3.2 (091e20e, 2023-11-25, custom)"
   xml:space="preserve"
   inkscape:export-filename="warning - fan drill.png"
   inkscape:export-xdpi="192"
   inkscape:export-ydpi="192"
   xmlns:inkscape="http://www.inkscape.org/namespaces/inkscape"
   xmlns:sodipodi="http://sodipodi.sourceforge.net/DTD/sodipodi-0.dtd"
   xmlns="http://www.w3.org/2000/svg"
   xmlns:svg="http://www.w3.org/2000/svg"
   xmlns:rdf="http://www.w3.org/1999/02/22-rdf-syntax-ns#"
   xmlns:cc="http://creativecommons.org/ns#"
   xmlns:dc="http://purl.org/dc/elements/1.1/"><defs
     id="defs2"><marker
       style="overflow:visible"
       id="DartArrow"
       refX="0"
       refY="0"
       orient="auto-start-reverse"
       inkscape:stockid="Dart arrow"
       markerWidth="1"
       markerHeight="1"
       viewBox="0 0 1 1"
       inkscape:isstock="true"
       inkscape:collect="always"
       preserveAspectRatio="xMidYMid"><path
         style="fill:context-stroke;fill-rule:evenodd;stroke:none"
         d="M 0,0 5,-5 -12.5,0 5,5 Z"
         transform="scale(-0.5)"
         id="path6" /></marker><clipPath
       id="819d25e4f6"><path
         d="M 9.070312,193.32422 H 126 v 102 H 9.070312 Z m 0,0"
         clip-rule="nonzero"
         id="path50962" /></clipPath><clipPath
       id="6b9a7a6152"><path
         d="M 9.070312,193.32422 H 125.32031 V 295 H 9.070312 Z m 0,0"
         clip-rule="nonzero"
         id="path50968" /></clipPath><clipPath
       id="e3f1afcfeb"><path
         d="m 69,236.03516 h 8 V 256 h -8 z m 0,0"
         clip-rule="nonzero"
         id="path50971" /></clipPath><clipPath
       id="4a60cf4493"><path
         d="M 30.449219,236.03516 H 77 V 287 H 30.449219 Z m 0,0"
         clip-rule="nonzero"
         id="path50974" /></clipPath></defs><sodipodi:namedview
     id="base"
     pagecolor="#ffffff"
     bordercolor="#666666"
     borderopacity="1.0"
     inkscape:pageopacity="0.0"
     inkscape:pageshadow="2"
     inkscape:zoom="1.9540442"
     inkscape:cx="277.62934"
     inkscape:cy="294.00563"
     inkscape:document-units="mm"
     inkscape:current-layer="layer7"
     showgrid="false"
     inkscape:window-width="1920"
     inkscape:window-height="1017"
     inkscape:window-x="-8"
     inkscape:window-y="-8"
     inkscape:window-maximized="1"
     inkscape:showpageshadow="2"
     inkscape:pagecheckerboard="0"
     inkscape:deskcolor="#d1d1d1" /><metadata
     id="metadata5"><rdf:RDF><cc:Work
         rdf:about=""><dc:format>image/svg+xml</dc:format><dc:type
           rdf:resource="http://purl.org/dc/dcmitype/StillImage" /></cc:Work></rdf:RDF></metadata><g
     inkscape:groupmode="layer"
     id="layer1"
     inkscape:label="sign"
     style="display:inline"
     transform="translate(1.9148867,-1.5319094)"><path
       fill="#ffcd30"
       d="m 67.042312,13.07551 57.377718,99.40112 H 9.6645995 Z m 0,0"
       fill-opacity="1"
       fill-rule="nonzero"
       id="path50995"
       style="display:inline;opacity:1;stroke-width:1.03932" /><g
       clip-path="url(#819d25e4f6)"
       id="g50999"
       transform="matrix(1.0393189,0,0,1.0393189,-2.998039,-191.08164)"
       style="display:inline;opacity:1"><path
         stroke-linecap="butt"
         transform="matrix(0.194388,0,0,0.194388,9.073162,193.3235)"
         fill="none"
         stroke-linejoin="round"
         d="M 300.00531,15.999387 584.00949,508.00803 H 16.001143 Z m 0,0"
         stroke="#000000"
         stroke-width="32"
         stroke-opacity="1"
         stroke-miterlimit="4"
         id="path50997" /></g><path
       fill="#ffcd30"
       d="m 74.516479,48.631578 c 0,-0.491257 -0.04873,-0.974359 -0.14209,-1.45749 -0.09743,-0.479067 -0.239518,-0.949994 -0.426283,-1.400635 -0.186753,-0.454702 -0.418163,-0.88504 -0.690171,-1.295077 C 72.98592,44.072374 72.673319,43.6948 72.32823,43.345653 71.979086,43.000585 71.601522,42.692042 71.195536,42.415961 70.785492,42.144028 70.35515,41.916592 69.900446,41.72578 c -0.450642,-0.186791 -0.917522,-0.328845 -1.400644,-0.422212 -0.48312,-0.09746 -0.966242,-0.146117 -1.457483,-0.146117 -0.49124,0 -0.978421,0.04859 -1.457481,0.146117 -0.483122,0.09334 -0.950002,0.235393 -1.404703,0.422212 -0.454704,0.190911 -0.885047,0.418163 -1.291031,0.690181 -0.410044,0.276052 -0.787609,0.584624 -1.132695,0.929692 -0.349147,0.349147 -0.657695,0.726721 -0.929703,1.132723 -0.272013,0.410037 -0.50342,0.840375 -0.690174,1.295077 -0.190819,0.450641 -0.332906,0.921568 -0.426283,1.400635 -0.09743,0.483131 -0.146156,0.966233 -0.146156,1.45749 l 2.224792,28.89386 c 0,0.341034 0.03246,0.686117 0.101496,1.023088 0.06497,0.336985 0.166455,0.665816 0.296368,0.986563 0.133985,0.316656 0.29637,0.621122 0.487183,0.905343 0.190818,0.288127 0.41004,0.552118 0.653633,0.795709 0.243584,0.243646 0.507482,0.462828 0.795728,0.653654 0.288246,0.194733 0.588678,0.353181 0.909405,0.487166 0.316668,0.129992 0.645514,0.231556 0.98248,0.300445 0.341026,0.06478 0.682055,0.09746 1.02714,0.09746 0.345086,0 0.686111,-0.0324 1.023078,-0.09746 0.336968,-0.06891 0.665816,-0.170581 0.986544,-0.300445 0.316668,-0.134112 0.621155,-0.292263 0.909402,-0.487166 0.28418,-0.19091 0.55214,-0.410037 0.79573,-0.653654 0.243583,-0.243648 0.45876,-0.507468 0.653634,-0.795709 0.190819,-0.284307 0.353205,-0.588687 0.483122,-0.905343 0.133956,-0.320747 0.231416,-0.649578 0.300425,-0.986563 0.06497,-0.336971 0.101496,-0.682054 0.101496,-1.023088 m 2.423724,17.16908 c -0.0041,0.33698 -0.03249,0.66986 -0.08119,0.99873 -0.04467,0.32885 -0.113697,0.6577 -0.207052,0.97843 -0.08934,0.32072 -0.19892,0.63739 -0.328846,0.94187 -0.133956,0.30854 -0.284181,0.60492 -0.4547,0.89316 -0.170521,0.28813 -0.35727,0.5643 -0.564321,0.82415 -0.207052,0.26396 -0.42628,0.51153 -0.665813,0.747012 -0.239517,0.23157 -0.491238,0.45064 -0.759189,0.64956 -0.267948,0.20299 -0.544018,0.38571 -0.836328,0.54809 -0.292312,0.16646 -0.592737,0.31262 -0.901282,0.4344 -0.308549,0.12572 -0.625216,0.23157 -0.950003,0.31668 -0.320727,0.0851 -0.649573,0.14612 -0.982483,0.18678 -0.328847,0.0406 -0.661754,0.0609 -0.99872,0.0609 -0.332906,-0.003 -0.665812,-0.0294 -0.994663,-0.073 -0.332907,-0.0448 -0.657692,-0.11366 -0.982479,-0.20299 -0.320728,-0.0851 -0.637395,-0.19503 -0.941884,-0.32479 -0.308545,-0.12999 -0.608973,-0.28017 -0.897222,-0.44659 -0.288248,-0.16646 -0.564317,-0.35321 -0.828209,-0.56025 -0.263883,-0.20299 -0.5156,-0.42222 -0.751071,-0.66176 -0.235481,-0.235392 -0.4547,-0.487182 -0.653633,-0.751092 -0.202986,-0.26779 -0.389745,-0.54402 -0.556197,-0.8363 -0.166454,-0.28813 -0.312609,-0.58869 -0.438462,-0.89723 -0.129921,-0.30855 -0.235483,-0.62523 -0.320731,-0.94593 -0.08525,-0.32479 -0.150222,-0.6496 -0.194855,-0.9825 -0.04467,-0.32885 -0.06497,-0.66176 -0.06497,-0.99466 0,-0.33698 0.02033,-0.66986 0.06497,-0.9987 0.04467,-0.33291 0.10962,-0.65772 0.194855,-0.9825 0.08525,-0.32072 0.19082,-0.63739 0.320731,-0.94593 0.125857,-0.30854 0.272013,-0.609 0.438462,-0.89725 0.166455,-0.29225 0.353204,-0.56835 0.556197,-0.8363 0.198921,-0.26397 0.418164,-0.51563 0.653633,-0.75108 0.235483,-0.23951 0.487183,-0.45877 0.751071,-0.66175 0.263882,-0.20711 0.539958,-0.38974 0.828209,-0.56027 0.288246,-0.16646 0.588677,-0.31667 0.897222,-0.4466 0.304489,-0.13 0.621156,-0.23952 0.941884,-0.32477 0.324787,-0.0892 0.649572,-0.1582 0.982479,-0.20298 0.328851,-0.0447 0.661757,-0.069 0.994663,-0.069 0.336966,-0.003 0.669873,0.0148 0.99872,0.0568 0.33291,0.0406 0.661756,0.10541 0.982483,0.18679 0.324787,0.0851 0.641454,0.19091 0.950003,0.31667 0.308545,0.12161 0.608973,0.2678 0.901282,0.4344 0.292312,0.16234 0.56838,0.34509 0.836328,0.5481 0.267948,0.19887 0.51966,0.41814 0.759189,0.64955 0.239547,0.23541 0.458761,0.48315 0.665813,0.74702 0.207051,0.26396 0.393806,0.5359 0.564321,0.82414 0.170519,0.28813 0.320726,0.58462 0.4547,0.89316 0.129922,0.30449 0.239519,0.62117 0.328846,0.94188 0.09337,0.32074 0.162391,0.64959 0.207052,0.97844 0.0487,0.3329 0.07712,0.66175 0.08119,0.99871"
       fill-opacity="1"
       fill-rule="nonzero"
       id="path51001"
       style="display:inline;opacity:1;stroke-width:1.03932" /><g
       clip-path="url(#6b9a7a6152)"
       id="g51013"
       transform="matrix(1.0393189,0,0,1.0393189,-2.998039,-191.08164)"
       style="display:inline;opacity:1"><path
         fill="#000000"
         d="M 125.01953,290.25391 69.957031,194.875 c -0.5625,-0.96875 -1.59375,-1.55078 -2.699219,-1.55078 -1.105468,0 -2.132812,0.60156 -2.695312,1.55078 L 9.5,290.25391 c -0.5625,0.97265 -0.5625,2.15625 0,3.10546 0.5625,0.96875 1.589844,1.55079 2.695312,1.55079 H 122.32031 c 1.10547,0 2.13672,-0.60157 2.69922,-1.55079 0.5625,-0.96875 0.5625,-2.15234 0,-3.10546 z m 0,0"
         fill-opacity="1"
         fill-rule="nonzero"
         id="path51011" /></g><path
       fill="#ffcd30"
       d="m 15.303719,108.95674 51.620858,-89.02419 51.620853,89.02419 z m 0,0"
       fill-opacity="1"
       fill-rule="nonzero"
       id="path51015"
       style="display:inline;opacity:1;stroke-width:1.03932" /><path
       style="fill:none;fill-opacity:1;fill-rule:evenodd;stroke:#000000;stroke-width:0.602001;stroke-dasharray:none;stroke-opacity:1;marker-end:url(#DartArrow)"
       d="M 89.588269,71.406017 H 47.342553"
       id="path15" /><path
       style="fill:none;fill-opacity:1;fill-rule:evenodd;stroke:#000000;stroke-width:0.602001;stroke-dasharray:none;stroke-opacity:1"
       d="M 25.707314,104.03194 H 110.33415"
       id="path16" /></g><g
     inkscape:groupmode="layer"
     id="layer3"
     inkscape:label="drawing"
     style="display:inline"
     transform="matrix(0.69448695,0,0,0.69448695,35.417103,33.90379)"><g
       id="g62"
       transform="matrix(0.86144746,0.1462771,-0.1462771,0.86144746,14.384083,28.528958)"
       inkscape:label="g62"><g
         id="g63"
         inkscape:label="frog"><rect
           style="display:inline;opacity:1;fill:none;fill-opacity:1;fill-rule:evenodd;stroke:#000000;stroke-width:1;stroke-linecap:butt;stroke-linejoin:miter;stroke-miterlimit:4;stroke-dasharray:none;stroke-dashoffset:0;stroke-opacity:1"
           id="rect1"
           width="24.91688"
           height="17.54447"
           x="26.040936"
           y="49.439342"
           inkscape:export-filename="outline.svg"
           inkscape:export-xdpi="96"
           inkscape:export-ydpi="96"
           transform="rotate(-9.2001142)" /><rect
           style="display:inline;opacity:1;fill:none;fill-opacity:1;fill-rule:evenodd;stroke:#000000;stroke-width:1;stroke-linecap:butt;stroke-linejoin:miter;stroke-miterlimit:4;stroke-dasharray:none;stroke-dashoffset:0;stroke-opacity:1"
           id="rect2"
           width="12.472048"
           height="11.450526"
           x="23.570164"
           y="37.9893"
           transform="rotate(-9.2001142)" /><rect
           style="display:inline;opacity:1;fill:none;fill-opacity:1;fill-rule:evenodd;stroke:#000000;stroke-width:1;stroke-linecap:butt;stroke-linejoin:miter;stroke-miterlimit:4;stroke-dasharray:none;stroke-dashoffset:0;stroke-opacity:1"
           id="rect3"
           width="12.669767"
           height="11.540649"
           x="40.793247"
           y="37.898693"
           transform="rotate(-9.2001142)" /><rect
           style="font-variation-settings:normal;display:inline;opacity:1;fill:none;fill-opacity:1;fill-rule:evenodd;stroke:#000000;stroke-width:1;stroke-linecap:butt;stroke-linejoin:miter;stroke-miterlimit:4;stroke-dasharray:none;stroke-dashoffset:0;stroke-opacity:1;stop-color:#000000;stop-opacity:1"
           id="rect5"
           width="5.7741561"
           height="14.35071"
           x="-60.76202"
           y="35.460369"
           inkscape:transform-center-x="-6.6944676"
           inkscape:transform-center-y="-2.506094"
           transform="rotate(-107.33784)" /><rect
           style="font-variation-settings:normal;display:inline;opacity:1;fill:none;fill-opacity:1;fill-rule:evenodd;stroke:#000000;stroke-width:1;stroke-linecap:butt;stroke-linejoin:miter;stroke-miterlimit:4;stroke-dasharray:none;stroke-dashoffset:0;stroke-opacity:1;stop-color:#000000"
           id="rect5-6"
           width="5.7741561"
           height="14.35071"
           x="53.410469"
           y="49.579502"
           inkscape:transform-center-x="-3.1449347"
           inkscape:transform-center-y="0.36109054"
           transform="matrix(0.0505282,0.99872263,0.99872263,-0.0505282,0,0)" /><rect
           style="font-variation-settings:normal;display:inline;opacity:1;fill:none;fill-opacity:1;fill-rule:evenodd;stroke:#000000;stroke-width:1;stroke-linecap:butt;stroke-linejoin:miter;stroke-miterlimit:4;stroke-dasharray:none;stroke-dashoffset:0;stroke-opacity:1;stop-color:#000000;stop-opacity:1"
           id="rect6"
           width="5.7409883"
           height="4.93189"
           x="30.070133"
           y="67.074554"
           transform="rotate(-9.2001142)" /><rect
           style="font-variation-settings:normal;display:inline;opacity:1;fill:none;fill-opacity:1;fill-rule:evenodd;stroke:#000000;stroke-width:1;stroke-linecap:butt;stroke-linejoin:miter;stroke-miterlimit:4;stroke-dasharray:none;stroke-dashoffset:0;stroke-opacity:1;stop-color:#000000;stop-opacity:1"
           id="rect7"
           width="5.9059591"
           height="5.1133471"
           x="41.618095"
           y="66.983826"
           transform="rotate(-9.2001142)" /><rect
           style="font-variation-settings:normal;display:inline;opacity:1;fill:none;fill-opacity:1;fill-rule:evenodd;stroke:#000000;stroke-width:1;stroke-linecap:butt;stroke-linejoin:miter;stroke-miterlimit:4;stroke-dasharray:none;stroke-dashoffset:0;stroke-opacity:1;stop-color:#000000;stop-opacity:1"
           id="rect8"
           width="5.8482256"
           height="5.7703247"
           x="47.614788"
           y="37.898693"
           transform="rotate(-9.2001142)" /><rect
           style="font-variation-settings:normal;display:inline;opacity:1;fill:none;fill-opacity:1;fill-rule:evenodd;stroke:#000000;stroke-width:1;stroke-linecap:butt;stroke-linejoin:miter;stroke-miterlimit:4;stroke-dasharray:none;stroke-dashoffset:0;stroke-opacity:1;stop-color:#000000"
           id="rect8-5"
           width="5.886116"
           height="5.6797104"
           x="23.570164"
           y="37.9893"
           transform="rotate(-9.2001142)" /><rect
           style="font-variation-settings:normal;display:inline;opacity:1;fill:none;fill-opacity:1;fill-rule:evenodd;stroke:#000000;stroke-width:1;stroke-linecap:butt;stroke-linejoin:miter;stroke-miterlimit:4;stroke-dasharray:none;stroke-dashoffset:0;stroke-opacity:1;stop-color:#000000"
           id="rect8-5-8"
           width="2.9241104"
           height="5.6797104"
           x="29.45628"
           y="37.9893"
           transform="rotate(-9.2001142)" /><rect
           style="font-variation-settings:normal;display:inline;opacity:1;fill:none;fill-opacity:1;fill-rule:evenodd;stroke:#000000;stroke-width:1;stroke-linecap:butt;stroke-linejoin:miter;stroke-miterlimit:4;stroke-dasharray:none;stroke-dashoffset:0;stroke-opacity:1;stop-color:#000000"
           id="rect8-5-8-9"
           width="2.9241114"
           height="5.7703247"
           x="44.690678"
           y="37.898693"
           transform="rotate(-9.2001142)" /></g></g><g
       inkscape:groupmode="layer"
       id="layer7"
       inkscape:label="fan"><g
         id="g13"
         transform="translate(7.9750207,3.2883346)"><rect
           style="display:inline;fill:#000000;fill-opacity:1;fill-rule:evenodd;stroke:#000000;stroke-width:0.866827;stroke-dasharray:none"
           id="rect4"
           width="12.283002"
           height="3.8993657"
           x="58.705879"
           y="92.429337"
           transform="rotate(-15,2.5367618e-6,-4.3021892e-6)" /><rect
           style="display:inline;fill:#000000;fill-opacity:1;fill-rule:evenodd;stroke:#000000;stroke-width:0.866827;stroke-dasharray:none"
           id="rect9"
           width="12.283002"
           height="3.8993657"
           x="-107.01563"
           y="56.756203"
           transform="rotate(-105,7.9561967e-7,-2.0538363e-7)" /><rect
           style="display:inline;fill:#000000;fill-opacity:1;fill-rule:evenodd;stroke:#000000;stroke-width:0.866827;stroke-dasharray:none"
           id="rect10"
           width="12.283002"
           height="3.8993657"
           x="-94.476501"
           y="56.756207"
           transform="rotate(-105,7.9561967e-7,-2.0538363e-7)" /><rect
           style="display:inline;fill:#000000;fill-opacity:1;fill-rule:evenodd;stroke:#000000;stroke-width:0.866827;stroke-dasharray:none"
           id="rect11"
           width="12.283002"
           height="3.8993657"
           x="46.422886"
           y="92.526817"
           transform="rotate(-15,2.5367618e-6,-4.3021892e-6)" /></g></g></g><g
     inkscape:groupmode="layer"
     id="layer8"
     inkscape:label="drills"><path
       style="display:inline;fill:#000000;fill-opacity:1;fill-rule:evenodd;stroke:#000000;stroke-width:0.602001;stroke-dasharray:none"
       d="M 37.230106,76.920812 49.553083,80.601573 37.134362,84.38887 Z"
       id="path13"
       sodipodi:nodetypes="cccc" /><path
       style="display:inline;fill:#000000;fill-opacity:1;fill-rule:evenodd;stroke:#000000;stroke-width:0.602001;stroke-dasharray:none"
       d="M 37.26009,84.908129 49.583067,88.58889 37.164346,92.376187 Z"
       id="path13-2"
       sodipodi:nodetypes="cccc" /><path
       style="display:inline;fill:#000000;fill-opacity:1;fill-rule:evenodd;stroke:#000000;stroke-width:0.602001;stroke-dasharray:none"
       d="m 37.26009,93.186785 12.322977,3.680761 -12.418721,3.787294 z"
       id="path14"
       sodipodi:nodetypes="cccc" /></g></svg>
