<?xml version="1.0" encoding="UTF-8" standalone="no"?>
<svg
   width="500"
   zoomAndPan="magnify"
   viewBox="0 0 375 374.99999"
   height="500"
   preserveAspectRatio="xMidYMid"
   version="1.0"
   id="svg51541"
   sodipodi:docname="warning - conveyor.svg"
   xml:space="preserve"
   inkscape:version="1.3.2 (091e20e, 2023-11-25, custom)"
   inkscape:export-filename="warning - conveyor.png"
   inkscape:export-xdpi="192"
   inkscape:export-ydpi="192"
   xmlns:inkscape="http://www.inkscape.org/namespaces/inkscape"
   xmlns:sodipodi="http://sodipodi.sourceforge.net/DTD/sodipodi-0.dtd"
   xmlns="http://www.w3.org/2000/svg"
   xmlns:svg="http://www.w3.org/2000/svg"><sodipodi:namedview
     id="namedview51543"
     pagecolor="#ffffff"
     bordercolor="#000000"
     borderopacity="0.25"
     inkscape:showpageshadow="2"
     inkscape:pageopacity="0.0"
     inkscape:pagecheckerboard="0"
     inkscape:deskcolor="#d1d1d1"
     showgrid="false"
     inkscape:zoom="0.99191595"
     inkscape:cx="478.36714"
     inkscape:cy="315.04685"
     inkscape:window-width="1920"
     inkscape:window-height="1017"
     inkscape:window-x="-8"
     inkscape:window-y="-8"
     inkscape:window-maximized="1"
     inkscape:current-layer="layer1" /><defs
     id="defs50977"><clipPath
       id="77499bc506"><path
         d="M 0,71.480469 H 375 V 303.51953 H 0 Z m 0,0"
         clip-rule="nonzero"
         id="path50950" /></clipPath><clipPath
       id="7448837692"><path
         d="M 0.0078125,71.480469 H 374.99219 V 303.23047 H 0.0078125 Z m 0,0"
         clip-rule="nonzero"
         id="path50953" /></clipPath><clipPath
       id="884aeabeb4"><path
         d="M 137.53906,193.32422 H 365.92969 V 295.1875 H 137.53906 Z m 0,0"
         clip-rule="nonzero"
         id="path50956" /></clipPath><clipPath
       id="8088189f4f"><path
         d="M 137.53906,80.824219 H 365.92969 V 181.87109 H 137.53906 Z m 0,0"
         clip-rule="nonzero"
         id="path50959" /></clipPath><clipPath
       id="819d25e4f6"><path
         d="M 9.070312,193.32422 H 126 v 102 H 9.070312 Z m 0,0"
         clip-rule="nonzero"
         id="path50962" /></clipPath><clipPath
       id="833db6aec4"><path
         d="M 9.070312,79.8125 H 126 v 102 H 9.070312 Z m 0,0"
         clip-rule="nonzero"
         id="path50965" /></clipPath><clipPath
       id="6b9a7a6152"><path
         d="M 9.070312,193.32422 H 125.32031 V 295 H 9.070312 Z m 0,0"
         clip-rule="nonzero"
         id="path50968" /></clipPath><clipPath
       id="e3f1afcfeb"><path
         d="m 69,236.03516 h 8 V 256 h -8 z m 0,0"
         clip-rule="nonzero"
         id="path50971" /></clipPath><clipPath
       id="4a60cf4493"><path
         d="M 30.449219,236.03516 H 77 V 287 H 30.449219 Z m 0,0"
         clip-rule="nonzero"
         id="path50974" /></clipPath><marker
       style="overflow:visible"
       id="Triangle"
       refX="0"
       refY="0"
       orient="auto-start-reverse"
       inkscape:stockid="Triangle arrow"
       markerWidth="1"
       markerHeight="1"
       viewBox="0 0 1 1"
       inkscape:isstock="true"
       inkscape:collect="always"
       preserveAspectRatio="xMidYMid"><path
         transform="scale(0.5)"
         style="fill:context-stroke;fill-rule:evenodd;stroke:context-stroke;stroke-width:1pt"
         d="M 5.77,0 -2.88,5 V -5 Z"
         id="path135" /></marker></defs><g
     inkscape:groupmode="layer"
     id="layer1"
     inkscape:label="sign"><path
       fill="#ffcd30"
       d="M 184.34725,41.372536 350.465,329.15483 H 18.229454 Z m 0,0"
       fill-opacity="1"
       fill-rule="nonzero"
       id="path50995"
       style="stroke-width:3.009" /><g
       clip-path="url(#819d25e4f6)"
       id="g50999"
       transform="matrix(3.0089964,0,0,3.0089964,-18.430925,-549.69542)"><path
         stroke-linecap="butt"
         transform="matrix(0.194388,0,0,0.194388,9.073162,193.3235)"
         fill="none"
         stroke-linejoin="round"
         d="M 300.00531,15.999387 584.00949,508.00803 H 16.001143 Z m 0,0"
         stroke="#000000"
         stroke-width="32"
         stroke-opacity="1"
         stroke-miterlimit="4"
         id="path50997" /></g><path
       fill="#ffcd30"
       d="m 205.98614,144.31314 c 0,-1.42223 -0.14114,-2.82094 -0.4114,-4.21964 -0.28195,-1.38697 -0.69349,-2.75043 -1.23413,-4.05511 -0.54069,-1.31643 -1.21069,-2.56233 -1.99818,-3.74947 -0.78749,-1.17541 -1.69256,-2.26852 -2.69164,-3.27936 -1.01082,-0.99908 -2.10396,-1.89236 -3.27933,-2.69164 -1.18714,-0.78751 -2.43304,-1.44572 -3.74948,-1.99815 -1.30471,-0.54068 -2.6564,-0.95208 -4.05511,-1.22241 -1.3987,-0.28193 -2.79743,-0.42315 -4.21962,-0.42315 -1.42224,0 -2.83271,0.14113 -4.21967,0.42315 -1.39871,0.27022 -2.7504,0.68173 -4.06684,1.22241 -1.31644,0.55243 -2.56234,1.21064 -3.73776,1.99815 -1.18714,0.79928 -2.28024,1.69256 -3.27932,2.69164 -1.01083,1.01084 -1.90412,2.10395 -2.69164,3.27936 -0.7875,1.18714 -1.45749,2.43304 -1.99818,3.74947 -0.55242,1.30468 -0.96382,2.66814 -1.23413,4.05511 -0.28195,1.3987 -0.42317,2.79741 -0.42317,4.21964 l 6.44115,83.65242 c 0,0.98736 0.0938,1.98644 0.29398,2.962 0.18807,0.97558 0.48189,1.92764 0.85801,2.8562 0.3879,0.9168 0.85805,1.79833 1.41047,2.62111 0.55246,0.83451 1.18717,1.59853 1.8924,2.30375 0.70524,0.70525 1.46923,1.33997 2.30377,1.89239 0.83451,0.56419 1.70429,1.02257 2.63288,1.41047 0.91677,0.37613 1.86885,0.66997 2.84443,0.86977 0.98731,0.18807 1.97466,0.28195 2.97373,0.28195 0.99908,0 1.98642,-0.0938 2.96197,-0.28195 0.97558,-0.1998 1.92765,-0.49364 2.85619,-0.86977 0.91682,-0.3879 1.79836,-0.84628 2.63288,-1.41047 0.82278,-0.55242 1.59852,-1.18714 2.30376,-1.89239 0.70524,-0.70522 1.32818,-1.46924 1.89238,-2.30375 0.55244,-0.82278 1.0226,-1.70431 1.39872,-2.62111 0.38786,-0.92856 0.66996,-1.88062 0.86978,-2.8562 0.18806,-0.97556 0.29399,-1.97464 0.29399,-2.962 m 7.01706,49.70723 c -0.0119,0.97556 -0.0938,1.93937 -0.235,2.89145 -0.12934,0.95209 -0.3291,1.90413 -0.59945,2.83269 -0.25848,0.92856 -0.57591,1.84536 -0.95204,2.72691 -0.3879,0.89329 -0.82278,1.75133 -1.31644,2.58584 -0.49368,0.83456 -1.03434,1.6338 -1.6338,2.38605 -0.59945,0.76402 -1.23416,1.481 -1.92765,2.16272 -0.69349,0.66997 -1.42221,1.30466 -2.19798,1.88062 -0.77575,0.58769 -1.57501,1.11661 -2.42127,1.58677 -0.84629,0.48191 -1.71611,0.90507 -2.60938,1.25767 -0.89331,0.36438 -1.8101,0.66998 -2.75041,0.9168 -0.92857,0.24674 -1.88063,0.42316 -2.84446,0.54069 -0.95204,0.11771 -1.91586,0.17632 -2.89143,0.17632 -0.96386,-0.0119 -1.92766,-0.0822 -2.8797,-0.21153 -0.96384,-0.12934 -1.90416,-0.32911 -2.84447,-0.58769 -0.92855,-0.24672 -1.84536,-0.56418 -2.72691,-0.94031 -0.89327,-0.37612 -1.76306,-0.81101 -2.5976,-1.29294 -0.83451,-0.48191 -1.6338,-1.02257 -2.39778,-1.62202 -0.76402,-0.58772 -1.49276,-1.22241 -2.17449,-1.91588 -0.68171,-0.68173 -1.31642,-1.41047 -1.89238,-2.1745 -0.58768,-0.77574 -1.12838,-1.57501 -1.61026,-2.42129 -0.48192,-0.83453 -0.90504,-1.70431 -1.26945,-2.59761 -0.37611,-0.89329 -0.68171,-1.8101 -0.92853,-2.73865 -0.24674,-0.94029 -0.43489,-1.88061 -0.5642,-2.84446 -0.12934,-0.95204 -0.18805,-1.91585 -0.18805,-2.87969 0,-0.97558 0.0586,-1.93939 0.18805,-2.89144 0.12935,-0.96384 0.31737,-1.90415 0.5642,-2.84447 0.24674,-0.92854 0.55242,-1.84535 0.92853,-2.73863 0.36441,-0.89332 0.78753,-1.7631 1.26945,-2.59761 0.48188,-0.84628 1.02258,-1.64555 1.61026,-2.42131 0.57596,-0.76401 1.21067,-1.49276 1.89238,-2.17448 0.68173,-0.69348 1.41047,-1.32816 2.17449,-1.9159 0.76398,-0.59945 1.56327,-1.12836 2.39778,-1.62202 0.83454,-0.48191 1.70433,-0.9168 2.5976,-1.29293 0.88155,-0.37612 1.79836,-0.69348 2.72691,-0.94031 0.94031,-0.25848 1.88063,-0.4584 2.84447,-0.5877 0.95204,-0.12934 1.91584,-0.19979 2.8797,-0.19979 0.97557,-0.0119 1.93939,0.047 2.89143,0.1646 0.96383,0.1177 1.91589,0.30558 2.84446,0.54067 0.94031,0.24674 1.8571,0.55244 2.75041,0.91682 0.89327,0.3526 1.76309,0.77575 2.60938,1.25767 0.84626,0.47016 1.64552,0.99908 2.42127,1.58676 0.77577,0.57596 1.50449,1.21064 2.19798,1.88063 0.69349,0.68172 1.3282,1.3987 1.92765,2.16272 0.59946,0.764 1.14012,1.55149 1.6338,2.38603 0.49366,0.83453 0.92854,1.69257 1.31644,2.58584 0.37613,0.88155 0.69347,1.79836 0.95204,2.72691 0.2702,0.92858 0.47015,1.88062 0.59945,2.83271 0.14113,0.9638 0.22327,1.91587 0.235,2.89145"
       fill-opacity="1"
       fill-rule="nonzero"
       id="path51001"
       style="stroke-width:3.009" /><g
       clip-path="url(#6b9a7a6152)"
       id="g51013"
       transform="matrix(3.0089964,0,0,3.0089964,-18.430925,-549.69542)"><path
         fill="#000000"
         d="M 125.01953,290.25391 69.957031,194.875 c -0.5625,-0.96875 -1.59375,-1.55078 -2.699219,-1.55078 -1.105468,0 -2.132812,0.60156 -2.695312,1.55078 L 9.5,290.25391 c -0.5625,0.97265 -0.5625,2.15625 0,3.10546 0.5625,0.96875 1.589844,1.55079 2.695312,1.55079 H 122.32031 c 1.10547,0 2.13672,-0.60157 2.69922,-1.55079 0.5625,-0.96875 0.5625,-2.15234 0,-3.10546 z m 0,0"
         fill-opacity="1"
         fill-rule="nonzero"
         id="path51011" /></g><path
       fill="#ffcd30"
       d="M 34.555636,318.96421 184.00634,61.224871 333.45709,318.96421 Z m 0,0"
       fill-opacity="1"
       fill-rule="nonzero"
       id="path51015"
       style="stroke-width:3.009" /></g><g
     inkscape:groupmode="layer"
     id="layer2"
     inkscape:label="drawing"
     transform="translate(-29.110329,24.762682)"><rect
       style="fill:#000000;stroke-width:1.75292"
       id="rect2"
       width="9.3720427"
       height="9.3720427"
       x="30.434572"
       y="407.50104"
       transform="rotate(-45)" /><rect
       style="fill:#ffcd30;fill-opacity:1;stroke-width:0.802638"
       id="rect3"
       width="4.2913151"
       height="4.2913151"
       x="32.974937"
       y="410.04138"
       transform="rotate(-45)" /><rect
       style="fill:#000000;stroke-width:1.75292"
       id="rect6"
       width="9.3720427"
       height="9.3720427"
       x="-118.58548"
       y="258.48099"
       transform="rotate(-45)" /><rect
       style="fill:#ffcd30;fill-opacity:1;stroke-width:0.802638"
       id="rect7"
       width="4.2913151"
       height="4.2913151"
       x="-116.04511"
       y="261.02136"
       transform="rotate(-45)" /><rect
       style="fill:none;fill-opacity:1;stroke:#000000;stroke-width:3.69233;stroke-dasharray:none;stroke-opacity:1"
       id="rect8"
       width="231.84306"
       height="17.348259"
       x="95.976631"
       y="258.05179"
       ry="5.9821553" /></g><g
     inkscape:groupmode="layer"
     id="layer9"
     inkscape:label="arrrows"><path
       style="font-variation-settings:normal;display:inline;fill:none;fill-opacity:1;stroke:#000000;stroke-width:3.35666;stroke-linecap:butt;stroke-linejoin:miter;stroke-miterlimit:4;stroke-dasharray:none;stroke-dashoffset:0;stroke-opacity:1;marker-end:url(#Triangle);stop-color:#000000"
       d="M 95.775393,262.54002 H 163.17435"
       id="path14"
       sodipodi:nodetypes="cc" /><path
       style="font-variation-settings:normal;display:inline;fill:none;fill-opacity:1;stroke:#000000;stroke-width:3.35666;stroke-linecap:butt;stroke-linejoin:miter;stroke-miterlimit:4;stroke-dasharray:none;stroke-dashoffset:0;stroke-opacity:1;marker-end:url(#Triangle);stop-color:#000000"
       d="M 95.775393,241.20365 H 163.17435"
       id="path15"
       sodipodi:nodetypes="cc" /><path
       style="font-variation-settings:normal;display:inline;fill:none;fill-opacity:1;stroke:#000000;stroke-width:3.35666;stroke-linecap:butt;stroke-linejoin:miter;stroke-miterlimit:4;stroke-dasharray:none;stroke-dashoffset:0;stroke-opacity:1;marker-end:url(#Triangle);stop-color:#000000"
       d="M 95.775393,219.6679 H 163.17435"
       id="path16"
       sodipodi:nodetypes="cc" /></g><g
     id="g62"
     transform="matrix(1.9982046,0.33985618,-0.33985618,1.9982046,158.04387,128.37114)"
     inkscape:label="frog"
     style="display:inline"><path
       id="rect5-6"
       style="display:inline;opacity:1;fill:none;fill-rule:evenodd;stroke:#000000;stop-color:#000000"
       inkscape:transform-center-x="12.637614"
       inkscape:transform-center-y="-3.5142163"
       transform="matrix(0.07731567,-0.99700667,-0.99700667,-0.07731567,1.7449989e-7,1.1541397e-7)"
       d="m -46.867954,-39.286228 h 5.774156 v 14.35071 h -5.774156 z" /><rect
       style="display:inline;opacity:1;fill:#ffcd30;fill-opacity:1;fill-rule:evenodd;stroke:#000000;stroke-width:1;stroke-linecap:butt;stroke-linejoin:miter;stroke-miterlimit:4;stroke-dasharray:none;stroke-dashoffset:0;stroke-opacity:1"
       id="rect1"
       width="24.91688"
       height="17.54447"
       x="26.040936"
       y="49.439342"
       inkscape:export-filename="outline.svg"
       inkscape:export-xdpi="96"
       inkscape:export-ydpi="96"
       transform="rotate(-9.5392714,2.0384641,8.8645349)" /><rect
       style="font-variation-settings:normal;display:inline;opacity:1;fill:#ffcd30;fill-opacity:1;fill-rule:evenodd;stroke:#000000;stroke-width:1;stroke-linecap:butt;stroke-linejoin:miter;stroke-miterlimit:4;stroke-dasharray:none;stroke-dashoffset:0;stroke-opacity:1;stop-color:#000000;stop-opacity:1"
       id="rect5"
       width="5.7741561"
       height="14.35071"
       x="62.474159"
       y="-18.199869"
       inkscape:transform-center-x="11.498654"
       inkscape:transform-center-y="2.9247471"
       transform="rotate(69.740578)" /><rect
       style="font-variation-settings:normal;display:inline;opacity:1;fill:none;fill-opacity:1;fill-rule:evenodd;stroke:#000000;stroke-width:1;stroke-linecap:butt;stroke-linejoin:miter;stroke-miterlimit:4;stroke-dasharray:none;stroke-dashoffset:0;stroke-opacity:1;stop-color:#000000;stop-opacity:1"
       id="rect6-8"
       width="5.7409883"
       height="4.93189"
       x="8.8611536"
       y="73.144363"
       transform="rotate(-24.983758)" /><rect
       style="font-variation-settings:normal;display:inline;opacity:1;fill:none;fill-opacity:1;fill-rule:evenodd;stroke:#000000;stroke-width:1;stroke-linecap:butt;stroke-linejoin:miter;stroke-miterlimit:4;stroke-dasharray:none;stroke-dashoffset:0;stroke-opacity:1;stop-color:#000000;stop-opacity:1"
       id="rect7-6"
       width="5.9059591"
       height="5.1133471"
       x="51.208267"
       y="58.988247"
       transform="rotate(0.11428277)" /><g
       id="g1"
       inkscape:label="left eye"
       transform="rotate(-11.510393,35.197694,38.630899)"><rect
         style="display:inline;opacity:1;fill:#ffcd30;fill-opacity:1;fill-rule:evenodd;stroke:#000000;stroke-width:1;stroke-linecap:butt;stroke-linejoin:miter;stroke-miterlimit:4;stroke-dasharray:none;stroke-dashoffset:0;stroke-opacity:1"
         id="rect2-6"
         width="12.472048"
         height="11.450526"
         x="23.570164"
         y="37.9893"
         transform="rotate(-9.5392714,2.0384641,8.8645349)" /><rect
         style="font-variation-settings:normal;display:inline;opacity:1;fill:none;fill-opacity:1;fill-rule:evenodd;stroke:#000000;stroke-width:1;stroke-linecap:butt;stroke-linejoin:miter;stroke-miterlimit:4;stroke-dasharray:none;stroke-dashoffset:0;stroke-opacity:1;stop-color:#000000"
         id="rect8-5"
         width="5.886116"
         height="5.6797104"
         x="23.570164"
         y="37.9893"
         transform="rotate(-9.5392714,2.0384641,8.8645349)" /><rect
         style="font-variation-settings:normal;display:inline;opacity:1;fill:none;fill-opacity:1;fill-rule:evenodd;stroke:#000000;stroke-width:1;stroke-linecap:butt;stroke-linejoin:miter;stroke-miterlimit:4;stroke-dasharray:none;stroke-dashoffset:0;stroke-opacity:1;stop-color:#000000"
         id="rect8-5-8"
         width="2.9241104"
         height="5.6797104"
         x="29.45628"
         y="37.9893"
         transform="rotate(-9.5392714,2.0384641,8.8645349)" /></g><g
       id="g2"
       inkscape:label="right eye"
       transform="rotate(-4.5319489,52.272566,35.715329)"><rect
         style="display:inline;opacity:1;fill:none;fill-opacity:1;fill-rule:evenodd;stroke:#000000;stroke-width:1;stroke-linecap:butt;stroke-linejoin:miter;stroke-miterlimit:4;stroke-dasharray:none;stroke-dashoffset:0;stroke-opacity:1"
         id="rect3-8"
         width="12.669767"
         height="11.540649"
         x="40.793247"
         y="37.898693"
         transform="rotate(-9.5392714,2.0384641,8.8645349)" /><rect
         style="font-variation-settings:normal;display:inline;opacity:1;fill:none;fill-opacity:1;fill-rule:evenodd;stroke:#000000;stroke-width:1;stroke-linecap:butt;stroke-linejoin:miter;stroke-miterlimit:4;stroke-dasharray:none;stroke-dashoffset:0;stroke-opacity:1;stop-color:#000000;stop-opacity:1"
         id="rect8-2"
         width="5.8482256"
         height="5.7703247"
         x="47.614788"
         y="37.898693"
         transform="rotate(-9.5392714,2.0384641,8.8645349)" /><rect
         style="font-variation-settings:normal;display:inline;opacity:1;fill:none;fill-opacity:1;fill-rule:evenodd;stroke:#000000;stroke-width:1;stroke-linecap:butt;stroke-linejoin:miter;stroke-miterlimit:4;stroke-dasharray:none;stroke-dashoffset:0;stroke-opacity:1;stop-color:#000000"
         id="rect8-5-8-9"
         width="2.9241114"
         height="5.7703247"
         x="44.690678"
         y="37.898693"
         transform="rotate(-9.5392714,2.0384641,8.8645349)" /></g></g></svg>
