<?xml version="1.0" encoding="UTF-8" standalone="no"?>
<!-- Created with Inkscape (http://www.inkscape.org/) -->

<svg
   width="500"
   height="500"
   viewBox="0 0 132.29167 132.29167"
   version="1.1"
   id="svg8"
   sodipodi:docname="warning - crushing.svg"
   inkscape:version="1.3.2 (091e20e, 2023-11-25, custom)"
   xml:space="preserve"
   inkscape:export-filename="warning - crushing.png"
   inkscape:export-xdpi="192"
   inkscape:export-ydpi="192"
   xmlns:inkscape="http://www.inkscape.org/namespaces/inkscape"
   xmlns:sodipodi="http://sodipodi.sourceforge.net/DTD/sodipodi-0.dtd"
   xmlns="http://www.w3.org/2000/svg"
   xmlns:svg="http://www.w3.org/2000/svg"
   xmlns:rdf="http://www.w3.org/1999/02/22-rdf-syntax-ns#"
   xmlns:cc="http://creativecommons.org/ns#"
   xmlns:dc="http://purl.org/dc/elements/1.1/"><defs
     id="defs2"><clipPath
       id="819d25e4f6"><path
         d="M 9.070312,193.32422 H 126 v 102 H 9.070312 Z m 0,0"
         clip-rule="nonzero"
         id="path50962" /></clipPath><clipPath
       id="6b9a7a6152"><path
         d="M 9.070312,193.32422 H 125.32031 V 295 H 9.070312 Z m 0,0"
         clip-rule="nonzero"
         id="path50968" /></clipPath><clipPath
       id="e3f1afcfeb"><path
         d="m 69,236.03516 h 8 V 256 h -8 z m 0,0"
         clip-rule="nonzero"
         id="path50971" /></clipPath><clipPath
       id="4a60cf4493"><path
         d="M 30.449219,236.03516 H 77 V 287 H 30.449219 Z m 0,0"
         clip-rule="nonzero"
         id="path50974" /></clipPath></defs><sodipodi:namedview
     id="base"
     pagecolor="#ffffff"
     bordercolor="#666666"
     borderopacity="1.0"
     inkscape:pageopacity="0.0"
     inkscape:pageshadow="2"
     inkscape:zoom="3.9080884"
     inkscape:cx="222.99905"
     inkscape:cy="308.97459"
     inkscape:document-units="mm"
     inkscape:current-layer="g9"
     showgrid="false"
     inkscape:window-width="1920"
     inkscape:window-height="1017"
     inkscape:window-x="-8"
     inkscape:window-y="-8"
     inkscape:window-maximized="1"
     inkscape:showpageshadow="2"
     inkscape:pagecheckerboard="0"
     inkscape:deskcolor="#d1d1d1" /><metadata
     id="metadata5"><rdf:RDF><cc:Work
         rdf:about=""><dc:format>image/svg+xml</dc:format><dc:type
           rdf:resource="http://purl.org/dc/dcmitype/StillImage" /></cc:Work></rdf:RDF></metadata><g
     inkscape:groupmode="layer"
     id="layer1"
     inkscape:label="sign"
     style="display:inline"
     transform="translate(1.9148867,-1.5319094)"><path
       fill="#ffcd30"
       d="m 67.042312,13.07551 57.377718,99.40112 H 9.6645995 Z m 0,0"
       fill-opacity="1"
       fill-rule="nonzero"
       id="path50995"
       style="display:inline;opacity:1;stroke-width:1.03932" /><g
       clip-path="url(#819d25e4f6)"
       id="g50999"
       transform="matrix(1.0393189,0,0,1.0393189,-2.998039,-191.08164)"
       style="display:inline;opacity:1"><path
         stroke-linecap="butt"
         transform="matrix(0.194388,0,0,0.194388,9.073162,193.3235)"
         fill="none"
         stroke-linejoin="round"
         d="M 300.00531,15.999387 584.00949,508.00803 H 16.001143 Z m 0,0"
         stroke="#000000"
         stroke-width="32"
         stroke-opacity="1"
         stroke-miterlimit="4"
         id="path50997" /></g><path
       fill="#ffcd30"
       d="m 74.516479,48.631578 c 0,-0.491257 -0.04873,-0.974359 -0.14209,-1.45749 -0.09743,-0.479067 -0.239518,-0.949994 -0.426283,-1.400635 -0.186753,-0.454702 -0.418163,-0.88504 -0.690171,-1.295077 C 72.98592,44.072374 72.673319,43.6948 72.32823,43.345653 71.979086,43.000585 71.601522,42.692042 71.195536,42.415961 70.785492,42.144028 70.35515,41.916592 69.900446,41.72578 c -0.450642,-0.186791 -0.917522,-0.328845 -1.400644,-0.422212 -0.48312,-0.09746 -0.966242,-0.146117 -1.457483,-0.146117 -0.49124,0 -0.978421,0.04859 -1.457481,0.146117 -0.483122,0.09334 -0.950002,0.235393 -1.404703,0.422212 -0.454704,0.190911 -0.885047,0.418163 -1.291031,0.690181 -0.410044,0.276052 -0.787609,0.584624 -1.132695,0.929692 -0.349147,0.349147 -0.657695,0.726721 -0.929703,1.132723 -0.272013,0.410037 -0.50342,0.840375 -0.690174,1.295077 -0.190819,0.450641 -0.332906,0.921568 -0.426283,1.400635 -0.09743,0.483131 -0.146156,0.966233 -0.146156,1.45749 l 2.224792,28.89386 c 0,0.341034 0.03246,0.686117 0.101496,1.023088 0.06497,0.336985 0.166455,0.665816 0.296368,0.986563 0.133985,0.316656 0.29637,0.621122 0.487183,0.905343 0.190818,0.288127 0.41004,0.552118 0.653633,0.795709 0.243584,0.243646 0.507482,0.462828 0.795728,0.653654 0.288246,0.194733 0.588678,0.353181 0.909405,0.487166 0.316668,0.129992 0.645514,0.231556 0.98248,0.300445 0.341026,0.06478 0.682055,0.09746 1.02714,0.09746 0.345086,0 0.686111,-0.0324 1.023078,-0.09746 0.336968,-0.06891 0.665816,-0.170581 0.986544,-0.300445 0.316668,-0.134112 0.621155,-0.292263 0.909402,-0.487166 0.28418,-0.19091 0.55214,-0.410037 0.79573,-0.653654 0.243583,-0.243648 0.45876,-0.507468 0.653634,-0.795709 0.190819,-0.284307 0.353205,-0.588687 0.483122,-0.905343 0.133956,-0.320747 0.231416,-0.649578 0.300425,-0.986563 0.06497,-0.336971 0.101496,-0.682054 0.101496,-1.023088 m 2.423724,17.16908 c -0.0041,0.33698 -0.03249,0.66986 -0.08119,0.99873 -0.04467,0.32885 -0.113697,0.6577 -0.207052,0.97843 -0.08934,0.32072 -0.19892,0.63739 -0.328846,0.94187 -0.133956,0.30854 -0.284181,0.60492 -0.4547,0.89316 -0.170521,0.28813 -0.35727,0.5643 -0.564321,0.82415 -0.207052,0.26396 -0.42628,0.51153 -0.665813,0.747012 -0.239517,0.23157 -0.491238,0.45064 -0.759189,0.64956 -0.267948,0.20299 -0.544018,0.38571 -0.836328,0.54809 -0.292312,0.16646 -0.592737,0.31262 -0.901282,0.4344 -0.308549,0.12572 -0.625216,0.23157 -0.950003,0.31668 -0.320727,0.0851 -0.649573,0.14612 -0.982483,0.18678 -0.328847,0.0406 -0.661754,0.0609 -0.99872,0.0609 -0.332906,-0.003 -0.665812,-0.0294 -0.994663,-0.073 -0.332907,-0.0448 -0.657692,-0.11366 -0.982479,-0.20299 -0.320728,-0.0851 -0.637395,-0.19503 -0.941884,-0.32479 -0.308545,-0.12999 -0.608973,-0.28017 -0.897222,-0.44659 -0.288248,-0.16646 -0.564317,-0.35321 -0.828209,-0.56025 -0.263883,-0.20299 -0.5156,-0.42222 -0.751071,-0.66176 -0.235481,-0.235392 -0.4547,-0.487182 -0.653633,-0.751092 -0.202986,-0.26779 -0.389745,-0.54402 -0.556197,-0.8363 -0.166454,-0.28813 -0.312609,-0.58869 -0.438462,-0.89723 -0.129921,-0.30855 -0.235483,-0.62523 -0.320731,-0.94593 -0.08525,-0.32479 -0.150222,-0.6496 -0.194855,-0.9825 -0.04467,-0.32885 -0.06497,-0.66176 -0.06497,-0.99466 0,-0.33698 0.02033,-0.66986 0.06497,-0.9987 0.04467,-0.33291 0.10962,-0.65772 0.194855,-0.9825 0.08525,-0.32072 0.19082,-0.63739 0.320731,-0.94593 0.125857,-0.30854 0.272013,-0.609 0.438462,-0.89725 0.166455,-0.29225 0.353204,-0.56835 0.556197,-0.8363 0.198921,-0.26397 0.418164,-0.51563 0.653633,-0.75108 0.235483,-0.23951 0.487183,-0.45877 0.751071,-0.66175 0.263882,-0.20711 0.539958,-0.38974 0.828209,-0.56027 0.288246,-0.16646 0.588677,-0.31667 0.897222,-0.4466 0.304489,-0.13 0.621156,-0.23952 0.941884,-0.32477 0.324787,-0.0892 0.649572,-0.1582 0.982479,-0.20298 0.328851,-0.0447 0.661757,-0.069 0.994663,-0.069 0.336966,-0.003 0.669873,0.0148 0.99872,0.0568 0.33291,0.0406 0.661756,0.10541 0.982483,0.18679 0.324787,0.0851 0.641454,0.19091 0.950003,0.31667 0.308545,0.12161 0.608973,0.2678 0.901282,0.4344 0.292312,0.16234 0.56838,0.34509 0.836328,0.5481 0.267948,0.19887 0.51966,0.41814 0.759189,0.64955 0.239547,0.23541 0.458761,0.48315 0.665813,0.74702 0.207051,0.26396 0.393806,0.5359 0.564321,0.82414 0.170519,0.28813 0.320726,0.58462 0.4547,0.89316 0.129922,0.30449 0.239519,0.62117 0.328846,0.94188 0.09337,0.32074 0.162391,0.64959 0.207052,0.97844 0.0487,0.3329 0.07712,0.66175 0.08119,0.99871"
       fill-opacity="1"
       fill-rule="nonzero"
       id="path51001"
       style="display:inline;opacity:1;stroke-width:1.03932" /><g
       clip-path="url(#6b9a7a6152)"
       id="g51013"
       transform="matrix(1.0393189,0,0,1.0393189,-2.998039,-191.08164)"
       style="display:inline;opacity:1"><path
         fill="#000000"
         d="M 125.01953,290.25391 69.957031,194.875 c -0.5625,-0.96875 -1.59375,-1.55078 -2.699219,-1.55078 -1.105468,0 -2.132812,0.60156 -2.695312,1.55078 L 9.5,290.25391 c -0.5625,0.97265 -0.5625,2.15625 0,3.10546 0.5625,0.96875 1.589844,1.55079 2.695312,1.55079 H 122.32031 c 1.10547,0 2.13672,-0.60157 2.69922,-1.55079 0.5625,-0.96875 0.5625,-2.15234 0,-3.10546 z m 0,0"
         fill-opacity="1"
         fill-rule="nonzero"
         id="path51011" /></g><path
       fill="#ffcd30"
       d="m 15.303719,108.95674 51.620858,-89.02419 51.620853,89.02419 z m 0,0"
       fill-opacity="1"
       fill-rule="nonzero"
       id="path51015"
       style="display:inline;opacity:1;stroke-width:1.03932" /></g><g
     inkscape:groupmode="layer"
     id="layer3"
     inkscape:label="drawing"
     style="display:inline"
     transform="matrix(0.69448695,0,0,0.69448695,35.417103,33.90379)"><g
       id="g62"
       transform="matrix(0.87377841,0,0,0.87377841,6.6323804,5.7966108)"><g
         id="g19"
         transform="translate(-16.553609,1.3537173)"
         style="display:inline"
         inkscape:label="wheel right"><path
           style="fill:#000000;stroke:#000000;stroke-width:0.264583px;stroke-linecap:butt;stroke-linejoin:miter;stroke-opacity:1"
           d="M 62.012234,52.400104 53.986572,60.239121 72.60424,77.550287 Z"
           id="path4"
           transform="translate(18.385102,-7.4657317)" /><g
           id="g9"
           inkscape:transform-center-x="-3.5788443"
           inkscape:transform-center-y="-13.724735"
           transform="translate(18.385102,-7.4657317)"><path
             id="path5"
             style="fill:#000000;stroke:#000000;stroke-width:0.264583px;stroke-linecap:butt;stroke-linejoin:miter;stroke-opacity:1"
             inkscape:transform-center-x="9.3129828"
             inkscape:transform-center-y="-12.57656"
             d="M 72.558029 50.258955 L 62.745235 54.141323 L 62.012022 52.399835 L 53.986701 60.239511 L 72.604015 77.550496 L 72.581873 77.498549 L 72.604866 77.548793 L 72.604866 77.513026 L 72.606569 77.547941 L 82.543695 52.131587 L 72.561435 52.155431 L 72.558029 50.258955 z M 82.105129 53.965897 L 72.608273 77.547089 L 92.298581 58.65216 L 82.105129 53.965897 z M 52.588401 59.00216 L 48.454816 69.431501 L 72.511192 77.650983 L 52.588401 59.00216 z M 91.016948 60.012138 L 72.609976 77.547941 L 98.355893 68.498165 L 91.016948 60.012138 z M 46.656272 68.923957 L 47.210653 80.12909 L 72.512044 77.653537 L 46.656272 68.923957 z M 96.629734 69.215199 L 72.656813 77.67653 L 72.71983 77.68164 L 72.657664 77.678233 L 72.685767 77.69271 L 72.657664 77.679936 L 90.563906 98.273775 L 95.173526 89.419863 L 96.854552 90.296143 L 97.967571 79.802933 L 99.850422 79.961328 L 96.629734 69.215199 z M 72.512895 77.654389 L 45.381452 80.588093 L 50.015768 89.430082 L 48.335594 90.308916 L 56.313227 97.216108 L 55.107385 98.671464 L 67.342933 102.16551 L 72.516302 77.65524 L 72.483941 77.694413 L 72.514598 77.65524 L 72.485645 77.670569 L 72.512895 77.654389 z M 72.657664 77.68164 L 80.261451 103.89082 L 89.142613 97.034721 L 72.657664 77.68164 z M 72.655961 77.683343 L 66.989526 104.88206 L 79.651718 102.12463 L 72.655961 77.683343 z " /></g><g
           id="g14"
           inkscape:transform-center-x="-11.697922"
           inkscape:transform-center-y="9.3223831"
           transform="rotate(117.64005,84.043659,79.459447)" /></g><g
         id="g63"
         inkscape:label="frog"><rect
           style="display:inline;opacity:1;fill:none;fill-opacity:1;fill-rule:evenodd;stroke:#000000;stroke-width:1;stroke-linecap:butt;stroke-linejoin:miter;stroke-miterlimit:4;stroke-dasharray:none;stroke-dashoffset:0;stroke-opacity:1"
           id="rect1"
           width="24.91688"
           height="17.54447"
           x="26.040936"
           y="49.439342"
           inkscape:export-filename="outline.svg"
           inkscape:export-xdpi="96"
           inkscape:export-ydpi="96"
           transform="rotate(-9.2001142)" /><rect
           style="display:inline;opacity:1;fill:none;fill-opacity:1;fill-rule:evenodd;stroke:#000000;stroke-width:1;stroke-linecap:butt;stroke-linejoin:miter;stroke-miterlimit:4;stroke-dasharray:none;stroke-dashoffset:0;stroke-opacity:1"
           id="rect2"
           width="12.472048"
           height="11.450526"
           x="23.570164"
           y="37.9893"
           transform="rotate(-9.2001142)" /><rect
           style="display:inline;opacity:1;fill:none;fill-opacity:1;fill-rule:evenodd;stroke:#000000;stroke-width:1;stroke-linecap:butt;stroke-linejoin:miter;stroke-miterlimit:4;stroke-dasharray:none;stroke-dashoffset:0;stroke-opacity:1"
           id="rect3"
           width="12.669767"
           height="11.540649"
           x="40.793247"
           y="37.898693"
           transform="rotate(-9.2001142)" /><rect
           style="font-variation-settings:normal;display:inline;opacity:1;fill:none;fill-opacity:1;fill-rule:evenodd;stroke:#000000;stroke-width:1;stroke-linecap:butt;stroke-linejoin:miter;stroke-miterlimit:4;stroke-dasharray:none;stroke-dashoffset:0;stroke-opacity:1;stop-color:#000000;stop-opacity:1"
           id="rect5"
           width="5.7741561"
           height="14.35071"
           x="-70.037651"
           y="-18.814669"
           inkscape:transform-center-x="-2.4366446"
           inkscape:transform-center-y="-6.7200572"
           transform="rotate(-156.88402)" /><rect
           style="font-variation-settings:normal;display:inline;opacity:1;fill:none;fill-opacity:1;fill-rule:evenodd;stroke:#000000;stroke-width:1;stroke-linecap:butt;stroke-linejoin:miter;stroke-miterlimit:4;stroke-dasharray:none;stroke-dashoffset:0;stroke-opacity:1;stop-color:#000000"
           id="rect5-6"
           width="5.7741561"
           height="14.35071"
           x="-26.063068"
           y="-54.771854"
           inkscape:transform-center-x="6.5332103"
           inkscape:transform-center-y="-3.3809811"
           transform="matrix(0.47511896,-0.87992157,-0.87992157,-0.47511896,0,0)" /><rect
           style="font-variation-settings:normal;display:inline;opacity:1;fill:none;fill-opacity:1;fill-rule:evenodd;stroke:#000000;stroke-width:1;stroke-linecap:butt;stroke-linejoin:miter;stroke-miterlimit:4;stroke-dasharray:none;stroke-dashoffset:0;stroke-opacity:1;stop-color:#000000;stop-opacity:1"
           id="rect6"
           width="5.7409883"
           height="4.93189"
           x="30.070133"
           y="67.074554"
           transform="rotate(-9.2001142)" /><rect
           style="font-variation-settings:normal;display:inline;opacity:1;fill:none;fill-opacity:1;fill-rule:evenodd;stroke:#000000;stroke-width:1;stroke-linecap:butt;stroke-linejoin:miter;stroke-miterlimit:4;stroke-dasharray:none;stroke-dashoffset:0;stroke-opacity:1;stop-color:#000000;stop-opacity:1"
           id="rect7"
           width="5.9059591"
           height="5.1133471"
           x="41.618095"
           y="66.983826"
           transform="rotate(-9.2001142)" /><rect
           style="font-variation-settings:normal;display:inline;opacity:1;fill:none;fill-opacity:1;fill-rule:evenodd;stroke:#000000;stroke-width:1;stroke-linecap:butt;stroke-linejoin:miter;stroke-miterlimit:4;stroke-dasharray:none;stroke-dashoffset:0;stroke-opacity:1;stop-color:#000000;stop-opacity:1"
           id="rect8"
           width="5.8482256"
           height="5.7703247"
           x="47.614788"
           y="37.898693"
           transform="rotate(-9.2001142)" /><rect
           style="font-variation-settings:normal;display:inline;opacity:1;fill:none;fill-opacity:1;fill-rule:evenodd;stroke:#000000;stroke-width:1;stroke-linecap:butt;stroke-linejoin:miter;stroke-miterlimit:4;stroke-dasharray:none;stroke-dashoffset:0;stroke-opacity:1;stop-color:#000000"
           id="rect8-5"
           width="5.886116"
           height="5.6797104"
           x="23.570164"
           y="37.9893"
           transform="rotate(-9.2001142)" /><rect
           style="font-variation-settings:normal;display:inline;opacity:1;fill:none;fill-opacity:1;fill-rule:evenodd;stroke:#000000;stroke-width:1;stroke-linecap:butt;stroke-linejoin:miter;stroke-miterlimit:4;stroke-dasharray:none;stroke-dashoffset:0;stroke-opacity:1;stop-color:#000000"
           id="rect8-5-8"
           width="2.9241104"
           height="5.6797104"
           x="29.45628"
           y="37.9893"
           transform="rotate(-9.2001142)" /><rect
           style="font-variation-settings:normal;display:inline;opacity:1;fill:none;fill-opacity:1;fill-rule:evenodd;stroke:#000000;stroke-width:1;stroke-linecap:butt;stroke-linejoin:miter;stroke-miterlimit:4;stroke-dasharray:none;stroke-dashoffset:0;stroke-opacity:1;stop-color:#000000"
           id="rect8-5-8-9"
           width="2.9241114"
           height="5.7703247"
           x="44.690678"
           y="37.898693"
           transform="rotate(-9.2001142)" /></g><rect
         style="font-variation-settings:normal;opacity:1;vector-effect:none;fill:#000000;fill-opacity:1;fill-rule:evenodd;stroke:#000000;stroke-width:0.181457;stroke-linecap:butt;stroke-linejoin:miter;stroke-miterlimit:4;stroke-dasharray:none;stroke-dashoffset:0;stroke-opacity:1;-inkscape-stroke:none;stop-color:#000000;stop-opacity:1"
         id="rect51"
         width="2.8723297"
         height="3.0638187"
         x="35.383236"
         y="96.705711"
         transform="rotate(-8.1497917)" /><rect
         style="font-variation-settings:normal;opacity:1;vector-effect:none;fill:#000000;fill-opacity:1;fill-rule:evenodd;stroke:#000000;stroke-width:0.181457;stroke-linecap:butt;stroke-linejoin:miter;stroke-miterlimit:4;stroke-dasharray:none;stroke-dashoffset:0;stroke-opacity:1;-inkscape-stroke:none;stop-color:#000000;stop-opacity:1"
         id="rect52"
         width="0.76595467"
         height="0.76595467"
         x="100.99035"
         y="31.304462"
         transform="rotate(47.737796)" /><rect
         style="font-variation-settings:normal;opacity:1;vector-effect:none;fill:#000000;fill-opacity:1;fill-rule:evenodd;stroke:#000000;stroke-width:0.181457;stroke-linecap:butt;stroke-linejoin:miter;stroke-miterlimit:4;stroke-dasharray:none;stroke-dashoffset:0;stroke-opacity:1;-inkscape-stroke:none;stop-color:#000000;stop-opacity:1"
         id="rect53"
         width="1.723398"
         height="1.723398"
         x="7.091135"
         y="101.91389"
         transform="rotate(-22.118747)" /><rect
         style="font-variation-settings:normal;opacity:1;vector-effect:none;fill:#000000;fill-opacity:1;fill-rule:evenodd;stroke:#000000;stroke-width:0.181457;stroke-linecap:butt;stroke-linejoin:miter;stroke-miterlimit:4;stroke-dasharray:none;stroke-dashoffset:0;stroke-opacity:1;-inkscape-stroke:none;stop-color:#000000;stop-opacity:1"
         id="rect54"
         width="1.8191423"
         height="1.8191423"
         x="104.07322"
         y="34.326168"
         transform="rotate(43.073515)" /><rect
         style="font-variation-settings:normal;opacity:1;vector-effect:none;fill:#000000;fill-opacity:1;fill-rule:evenodd;stroke:#000000;stroke-width:0.181457;stroke-linecap:butt;stroke-linejoin:miter;stroke-miterlimit:4;stroke-dasharray:none;stroke-dashoffset:0;stroke-opacity:1;-inkscape-stroke:none;stop-color:#000000;stop-opacity:1"
         id="rect55"
         width="2.4783571"
         height="2.4475205"
         x="-23.624203"
         y="111.37241"
         transform="rotate(-36.10143)" /><rect
         style="font-variation-settings:normal;opacity:1;vector-effect:none;fill:#000000;fill-opacity:1;fill-rule:evenodd;stroke:#000000;stroke-width:0.181457;stroke-linecap:butt;stroke-linejoin:miter;stroke-miterlimit:4;stroke-dasharray:none;stroke-dashoffset:0;stroke-opacity:1;-inkscape-stroke:none;stop-color:#000000;stop-opacity:1"
         id="rect56"
         width="0.62233818"
         height="0.62233818"
         x="77.93261"
         y="73.802704"
         transform="rotate(21.163609)" /><rect
         style="font-variation-settings:normal;opacity:1;vector-effect:none;fill:#000000;fill-opacity:1;fill-rule:evenodd;stroke:#000000;stroke-width:0.181457;stroke-linecap:butt;stroke-linejoin:miter;stroke-miterlimit:4;stroke-dasharray:none;stroke-dashoffset:0;stroke-opacity:1;-inkscape-stroke:none;stop-color:#000000;stop-opacity:1"
         id="rect57"
         width="1.8430784"
         height="1.8430784"
         x="-8.5789518"
         y="109.27881"
         transform="rotate(-29.106654)" /><rect
         style="font-variation-settings:normal;opacity:1;vector-effect:none;fill:#000000;fill-opacity:1;fill-rule:evenodd;stroke:#000000;stroke-width:0.181457;stroke-linecap:butt;stroke-linejoin:miter;stroke-miterlimit:4;stroke-dasharray:none;stroke-dashoffset:0;stroke-opacity:1;-inkscape-stroke:none;stop-color:#000000;stop-opacity:1"
         id="rect58"
         width="2.0824394"
         height="2.0824394"
         x="86.87674"
         y="61.689323"
         transform="rotate(31.80888)" /><circle
         style="fill:#ffcd30;fill-opacity:1;stroke:none;stroke-width:1;stroke-dasharray:none;stroke-opacity:1"
         id="circle62"
         cx="75.746117"
         cy="70.555267"
         r="1.5319093" /><g
         id="g10"
         transform="translate(-69.792867,1.3537173)"
         style="display:inline"
         inkscape:label="wheel right"><path
           style="fill:#000000;stroke:#000000;stroke-width:0.264583px;stroke-linecap:butt;stroke-linejoin:miter;stroke-opacity:1"
           d="M 62.012234,52.400104 53.986572,60.239121 72.60424,77.550287 Z"
           id="path6"
           transform="translate(18.385102,-7.4657317)" /><g
           id="g7"
           inkscape:transform-center-x="-3.5788443"
           inkscape:transform-center-y="-13.724735"
           transform="translate(18.385102,-7.4657317)"><path
             id="path7"
             style="fill:#000000;stroke:#000000;stroke-width:0.264583px;stroke-linecap:butt;stroke-linejoin:miter;stroke-opacity:1"
             inkscape:transform-center-x="9.3129828"
             inkscape:transform-center-y="-12.57656"
             d="m 72.558029,50.258955 -9.812794,3.882368 -0.733213,-1.741488 -8.025321,7.839676 18.617314,17.310985 -0.02214,-0.05195 0.02299,0.05024 v -0.03577 l 0.0017,0.03491 9.937126,-25.416354 -9.98226,0.02384 z m 9.5471,3.706942 -9.496856,23.581192 19.690308,-18.894929 z m -29.516728,5.036263 -4.133585,10.429341 24.056376,8.219482 z m 38.428547,1.009978 -18.406972,17.535803 25.745917,-9.049776 z m -44.360676,8.911819 0.554381,11.205133 25.301391,-2.475553 z m 49.973462,0.291242 -23.972921,8.461331 0.06302,0.0051 -0.06217,-0.0034 0.0281,0.01448 -0.0281,-0.01277 17.906242,20.593839 4.60962,-8.853912 1.681026,0.87628 1.113019,-10.49321 1.882851,0.158395 z m -24.116839,8.43919 -27.131443,2.933704 4.634316,8.841989 -1.680174,0.878834 7.977633,6.907192 -1.205842,1.455356 12.235548,3.494046 5.173369,-24.51027 -0.03236,0.03917 0.03066,-0.03917 -0.02895,0.01533 z m 0.144769,0.02725 7.603787,26.20918 8.881162,-6.856099 z m -0.0017,0.0017 -5.666435,27.198717 12.662192,-2.75743 z" /></g><g
           id="g8"
           inkscape:transform-center-x="-11.697922"
           inkscape:transform-center-y="9.3223831"
           transform="rotate(117.64005,84.043659,79.459447)" /></g><circle
         style="fill:#ffcd30;fill-opacity:1;stroke:none;stroke-width:1;stroke-dasharray:none;stroke-opacity:1"
         id="circle10"
         cx="22.506859"
         cy="70.555267"
         r="1.5319093" /></g></g></svg>
